<svg width="1162" height="418" viewBox="0 0 1162 418" fill="none" xmlns="http://www.w3.org/2000/svg">
<rect x="1.43115" y="1.35727" width="1158.6" height="415.233" rx="19" fill="white" stroke="black" stroke-width="2"/>
<line opacity="0.2" x1="185.698" y1="0.357269" x2="185.698" y2="417.59" stroke="black" stroke-width="2"/>
<line opacity="0.2" x1="593.086" y1="0.357269" x2="593.086" y2="417.59" stroke="black" stroke-width="2"/>
<line opacity="0.1" x1="1161.03" y1="88.3703" x2="3.26306" y2="88.3703" stroke="black" stroke-width="2"/>
<line opacity="0.1" x1="1161.03" y1="146.654" x2="3.26306" y2="146.654" stroke="black" stroke-width="2"/>
<line opacity="0.1" x1="1161.03" y1="214.056" x2="3.26306" y2="214.056" stroke="black" stroke-width="2"/>
<line opacity="0.1" x1="1161.03" y1="281.458" x2="3.26306" y2="281.458" stroke="black" stroke-width="2"/>
<line opacity="0.1" x1="1161.03" y1="348.861" x2="3.26306" y2="348.861" stroke="black" stroke-width="2"/>
<line opacity="0.2" x1="792.394" y1="0.357269" x2="792.394" y2="417.59" stroke="black" stroke-width="2"/>
<path d="M668.382 49.9701H676.432V53.7151H663.482V29.2851H668.382V49.9701ZM682.031 32.0151C681.168 32.0151 680.445 31.7467 679.861 31.2101C679.301 30.6501 679.021 29.9617 679.021 29.1451C679.021 28.3284 679.301 27.6517 679.861 27.1151C680.445 26.5551 681.168 26.2751 682.031 26.2751C682.895 26.2751 683.606 26.5551 684.166 27.1151C684.75 27.6517 685.041 28.3284 685.041 29.1451C685.041 29.9617 684.75 30.6501 684.166 31.2101C683.606 31.7467 682.895 32.0151 682.031 32.0151ZM684.446 34.3251V53.7151H679.546V34.3251H684.446ZM697.373 49.2001L702.273 34.3251H707.523L700.383 53.7151H694.363L687.223 34.3251H692.473L697.373 49.2001ZM728.265 43.5651C728.265 44.2184 728.218 44.8251 728.125 45.3851H713.95C714.043 46.8084 714.521 47.9284 715.385 48.7451C716.248 49.5617 717.321 49.9701 718.605 49.9701C720.425 49.9701 721.72 49.1884 722.49 47.6251H727.775C727.215 49.4917 726.141 51.0317 724.555 52.2451C722.968 53.4351 721.02 54.0301 718.71 54.0301C716.843 54.0301 715.163 53.6217 713.67 52.8051C712.2 51.9651 711.045 50.7867 710.205 49.2701C709.388 47.7534 708.98 46.0034 708.98 44.0201C708.98 42.0134 709.388 40.2517 710.205 38.7351C711.021 37.2184 712.165 36.0517 713.635 35.2351C715.105 34.4184 716.796 34.0101 718.71 34.0101C720.553 34.0101 722.198 34.4067 723.645 35.2001C725.115 35.9934 726.246 37.1134 727.04 38.5601C727.856 40.0067 728.265 41.6751 728.265 43.5651ZM723.19 42.4101C723.166 41.0567 722.711 39.9951 721.825 39.2251C720.961 38.4317 719.876 38.0351 718.57 38.0351C717.333 38.0351 716.295 38.4317 715.455 39.2251C714.615 39.9951 714.113 41.0567 713.95 42.4101H723.19Z" fill="black"/>
<path d="M246.976 33.1001V39.4351H255.201V43.2151H246.976V49.8301H256.251V53.7151H242.076V29.2501H256.251V33.1001H246.976ZM259.444 43.9501C259.444 41.9901 259.829 40.2517 260.599 38.7351C261.392 37.2184 262.454 36.0517 263.784 35.2351C265.137 34.4184 266.642 34.0101 268.299 34.0101C269.745 34.0101 271.005 34.3017 272.079 34.8851C273.175 35.4684 274.05 36.2034 274.704 37.0901V34.3251H279.639V53.7151H274.704V50.8801C274.074 51.7901 273.199 52.5484 272.079 53.1551C270.982 53.7384 269.71 54.0301 268.264 54.0301C266.63 54.0301 265.137 53.6101 263.784 52.7701C262.454 51.9301 261.392 50.7517 260.599 49.2351C259.829 47.6951 259.444 45.9334 259.444 43.9501ZM274.704 44.0201C274.704 42.8301 274.47 41.8151 274.004 40.9751C273.537 40.1117 272.907 39.4584 272.114 39.0151C271.32 38.5484 270.469 38.3151 269.559 38.3151C268.649 38.3151 267.809 38.5367 267.039 38.9801C266.269 39.4234 265.639 40.0767 265.149 40.9401C264.682 41.7801 264.449 42.7834 264.449 43.9501C264.449 45.1167 264.682 46.1434 265.149 47.0301C265.639 47.8934 266.269 48.5584 267.039 49.0251C267.832 49.4917 268.672 49.7251 269.559 49.7251C270.469 49.7251 271.32 49.5034 272.114 49.0601C272.907 48.5934 273.537 47.9401 274.004 47.1001C274.47 46.2367 274.704 45.2101 274.704 44.0201ZM289.324 37.7551C289.954 36.5884 290.771 35.6784 291.774 35.0251C292.801 34.3717 293.968 34.0451 295.274 34.0451V39.1901H293.979C292.439 39.1901 291.273 39.5517 290.479 40.2751C289.709 40.9984 289.324 42.2584 289.324 44.0551V53.7151H284.424V34.3251H289.324V37.7551ZM309.32 34.0451C311.63 34.0451 313.496 34.7801 314.92 36.2501C316.343 37.6967 317.055 39.7267 317.055 42.3401V53.7151H312.155V43.0051C312.155 41.4651 311.77 40.2867 311 39.4701C310.23 38.6301 309.18 38.2101 307.85 38.2101C306.496 38.2101 305.423 38.6301 304.63 39.4701C303.86 40.2867 303.475 41.4651 303.475 43.0051V53.7151H298.575V34.3251H303.475V36.7401C304.128 35.9001 304.956 35.2467 305.96 34.7801C306.986 34.2901 308.106 34.0451 309.32 34.0451ZM324.199 32.0151C323.336 32.0151 322.613 31.7467 322.029 31.2101C321.469 30.6501 321.189 29.9617 321.189 29.1451C321.189 28.3284 321.469 27.6517 322.029 27.1151C322.613 26.5551 323.336 26.2751 324.199 26.2751C325.063 26.2751 325.774 26.5551 326.334 27.1151C326.918 27.6517 327.209 28.3284 327.209 29.1451C327.209 29.9617 326.918 30.6501 326.334 31.2101C325.774 31.7467 325.063 32.0151 324.199 32.0151ZM326.614 34.3251V53.7151H321.714V34.3251H326.614ZM342.201 34.0451C344.511 34.0451 346.377 34.7801 347.801 36.2501C349.224 37.6967 349.936 39.7267 349.936 42.3401V53.7151H345.036V43.0051C345.036 41.4651 344.651 40.2867 343.881 39.4701C343.111 38.6301 342.061 38.2101 340.731 38.2101C339.377 38.2101 338.304 38.6301 337.511 39.4701C336.741 40.2867 336.356 41.4651 336.356 43.0051V53.7151H331.456V34.3251H336.356V36.7401C337.009 35.9001 337.837 35.2467 338.841 34.7801C339.867 34.2901 340.987 34.0451 342.201 34.0451ZM362.19 34.0101C363.637 34.0101 364.909 34.3017 366.005 34.8851C367.102 35.4451 367.965 36.1801 368.595 37.0901V34.3251H373.53V53.8551C373.53 55.6517 373.169 57.2501 372.445 58.6501C371.722 60.0734 370.637 61.1934 369.19 62.0101C367.744 62.8501 365.994 63.2701 363.94 63.2701C361.187 63.2701 358.924 62.6284 357.15 61.3451C355.4 60.0617 354.409 58.3117 354.175 56.0951H359.04C359.297 56.9817 359.845 57.6817 360.685 58.1951C361.549 58.7317 362.587 59.0001 363.8 59.0001C365.224 59.0001 366.379 58.5684 367.265 57.7051C368.152 56.8651 368.595 55.5817 368.595 53.8551V50.8451C367.965 51.7551 367.09 52.5134 365.97 53.1201C364.874 53.7267 363.614 54.0301 362.19 54.0301C360.557 54.0301 359.064 53.6101 357.71 52.7701C356.357 51.9301 355.284 50.7517 354.49 49.2351C353.72 47.6951 353.335 45.9334 353.335 43.9501C353.335 41.9901 353.72 40.2517 354.49 38.7351C355.284 37.2184 356.345 36.0517 357.675 35.2351C359.029 34.4184 360.534 34.0101 362.19 34.0101ZM368.595 44.0201C368.595 42.8301 368.362 41.8151 367.895 40.9751C367.429 40.1117 366.799 39.4584 366.005 39.0151C365.212 38.5484 364.36 38.3151 363.45 38.3151C362.54 38.3151 361.7 38.5367 360.93 38.9801C360.16 39.4234 359.53 40.0767 359.04 40.9401C358.574 41.7801 358.34 42.7834 358.34 43.9501C358.34 45.1167 358.574 46.1434 359.04 47.0301C359.53 47.8934 360.16 48.5584 360.93 49.0251C361.724 49.4917 362.564 49.7251 363.45 49.7251C364.36 49.7251 365.212 49.5034 366.005 49.0601C366.799 48.5934 367.429 47.9401 367.895 47.1001C368.362 46.2367 368.595 45.2101 368.595 44.0201ZM385.701 54.0301C384.114 54.0301 382.691 53.7501 381.431 53.1901C380.194 52.6067 379.203 51.8251 378.456 50.8451C377.733 49.8651 377.336 48.7801 377.266 47.5901H382.201C382.294 48.4067 382.656 49.0717 383.286 49.5851C383.916 50.0751 384.721 50.3201 385.701 50.3201C386.634 50.3201 387.358 50.1334 387.871 49.7601C388.408 49.3634 388.676 48.8384 388.676 48.1851C388.676 47.5551 388.349 47.0767 387.696 46.7501C387.066 46.4234 386.039 46.0851 384.616 45.7351C383.193 45.3851 382.026 45.0351 381.116 44.6851C380.206 44.3117 379.424 43.7401 378.771 42.9701C378.118 42.2001 377.791 41.1851 377.791 39.9251C377.791 38.8284 378.083 37.8367 378.666 36.9501C379.273 36.0401 380.148 35.3284 381.291 34.8151C382.458 34.2784 383.823 34.0101 385.386 34.0101C387.696 34.0101 389.539 34.5934 390.916 35.7601C392.293 36.9034 393.051 38.4551 393.191 40.4151H388.501C388.431 39.5984 388.104 38.9451 387.521 38.4551C386.961 37.9651 386.203 37.7201 385.246 37.7201C384.359 37.7201 383.671 37.9067 383.181 38.2801C382.714 38.6301 382.481 39.1201 382.481 39.7501C382.481 40.4034 382.808 40.9051 383.461 41.2551C384.114 41.5817 385.129 41.9201 386.506 42.2701C387.906 42.6201 389.061 42.9817 389.971 43.3551C390.881 43.7284 391.663 44.3001 392.316 45.0701C392.969 45.8167 393.296 46.8317 393.296 48.1151C393.296 49.2351 392.993 50.2501 392.386 51.1601C391.779 52.0467 390.904 52.7467 389.761 53.2601C388.618 53.7734 387.264 54.0301 385.701 54.0301ZM414.642 58.9231C412.384 57.2244 410.564 54.9284 409.182 52.0351C407.801 49.1231 407.11 45.9217 407.11 42.4311C407.11 40.1164 407.428 37.9137 408.062 35.8231C408.697 33.7137 409.584 31.8284 410.722 30.1671C411.861 28.4871 413.168 27.0964 414.642 25.9951H418.618V26.3591C416.042 28.4311 414.11 30.8484 412.822 33.6111C411.553 36.3551 410.918 39.2951 410.918 42.4311C410.918 45.5857 411.553 48.5444 412.822 51.3071C414.11 54.0511 416.042 56.4684 418.618 58.5591V58.9231H414.642ZM420.179 38.6791C420.272 36.8124 420.926 35.3751 422.139 34.3671C423.371 33.3404 424.986 32.8271 426.983 32.8271C428.346 32.8271 429.512 33.0697 430.483 33.5551C431.454 34.0217 432.182 34.6657 432.667 35.4871C433.171 36.2897 433.423 37.2044 433.423 38.2311C433.423 39.4071 433.115 40.4057 432.499 41.2271C431.902 42.0297 431.183 42.5711 430.343 42.8511V42.9631C431.426 43.2991 432.266 43.8964 432.863 44.7551C433.479 45.6137 433.787 46.7151 433.787 48.0591C433.787 49.1791 433.526 50.1777 433.003 51.0551C432.499 51.9324 431.743 52.6231 430.735 53.1271C429.746 53.6124 428.551 53.8551 427.151 53.8551C425.042 53.8551 423.324 53.3231 421.999 52.2591C420.674 51.1951 419.974 49.6271 419.899 47.5551H423.707C423.744 48.4697 424.052 49.2071 424.631 49.7671C425.228 50.3084 426.04 50.5791 427.067 50.5791C428.019 50.5791 428.747 50.3177 429.251 49.7951C429.774 49.2537 430.035 48.5631 430.035 47.7231C430.035 46.6031 429.68 45.8004 428.971 45.3151C428.262 44.8297 427.16 44.5871 425.667 44.5871H424.855V41.3671H425.667C428.318 41.3671 429.643 40.4804 429.643 38.7071C429.643 37.9044 429.4 37.2791 428.915 36.8311C428.448 36.3831 427.767 36.1591 426.871 36.1591C425.994 36.1591 425.312 36.4017 424.827 36.8871C424.36 37.3537 424.09 37.9511 424.015 38.6791H420.179ZM436.885 43.4951C436.885 36.7377 439.405 33.3591 444.445 33.3591C449.485 33.3591 452.005 36.7377 452.005 43.4951C452.005 50.2711 449.485 53.6591 444.445 53.6591C439.405 53.6591 436.885 50.2711 436.885 43.4951ZM446.797 37.8671C446.274 37.2884 445.49 36.9991 444.445 36.9991C443.4 36.9991 442.606 37.2884 442.065 37.8671C441.542 38.4457 441.188 39.2017 441.001 40.1351C440.833 41.0497 440.749 42.1697 440.749 43.4951C440.749 44.8204 440.833 45.9497 441.001 46.8831C441.188 47.8164 441.542 48.5724 442.065 49.1511C442.606 49.7297 443.4 50.0191 444.445 50.0191C445.49 50.0191 446.274 49.7297 446.797 49.1511C447.338 48.5724 447.693 47.8164 447.861 46.8831C448.048 45.9497 448.141 44.8204 448.141 43.4951C448.141 42.1697 448.048 41.0497 447.861 40.1351C447.693 39.2017 447.338 38.4457 446.797 37.8671ZM469.759 34.1711C471.812 34.1711 473.613 34.5724 475.163 35.3751C476.731 36.1777 477.935 37.3257 478.775 38.8191C479.633 40.2937 480.063 42.0111 480.063 43.9711C480.063 45.9311 479.633 47.6484 478.775 49.1231C477.935 50.5791 476.731 51.7084 475.163 52.5111C473.613 53.3137 471.812 53.7151 469.759 53.7151H462.927V34.1711H469.759ZM469.619 50.5231C471.653 50.5231 473.231 49.9444 474.351 48.7871C475.489 47.6297 476.059 46.0244 476.059 43.9711C476.059 41.9364 475.499 40.3404 474.379 39.1831C473.259 38.0257 471.672 37.4471 469.619 37.4471H466.847V50.5231H469.619ZM481.989 45.9031C481.989 44.3351 482.297 42.9444 482.913 41.7311C483.548 40.5177 484.397 39.5844 485.461 38.9311C486.544 38.2777 487.748 37.9511 489.073 37.9511C490.23 37.9511 491.238 38.1844 492.097 38.6511C492.974 39.1177 493.674 39.7057 494.197 40.4151V38.2031H498.145V53.7151H494.197V51.4471C493.693 52.1751 492.993 52.7817 492.097 53.2671C491.22 53.7337 490.202 53.9671 489.045 53.9671C487.738 53.9671 486.544 53.6311 485.461 52.9591C484.397 52.2871 483.548 51.3444 482.913 50.1311C482.297 48.8991 481.989 47.4897 481.989 45.9031ZM494.197 45.9591C494.197 45.0071 494.01 44.1951 493.637 43.5231C493.264 42.8324 492.76 42.3097 492.125 41.9551C491.49 41.5817 490.809 41.3951 490.081 41.3951C489.353 41.3951 488.681 41.5724 488.065 41.9271C487.449 42.2817 486.945 42.8044 486.553 43.4951C486.18 44.1671 485.993 44.9697 485.993 45.9031C485.993 46.8364 486.18 47.6577 486.553 48.3671C486.945 49.0577 487.449 49.5897 488.065 49.9631C488.7 50.3364 489.372 50.5231 490.081 50.5231C490.809 50.5231 491.49 50.3457 492.125 49.9911C492.76 49.6177 493.264 49.0951 493.637 48.4231C494.01 47.7324 494.197 46.9111 494.197 45.9591ZM504.578 38.2031L508.582 49.0391L512.642 38.2031H516.814L507.21 61.0511H503.038L506.398 53.3231L500.182 38.2031H504.578ZM524.835 53.9671C523.565 53.9671 522.427 53.7431 521.419 53.2951C520.429 52.8284 519.636 52.2031 519.039 51.4191C518.46 50.6351 518.143 49.7671 518.087 48.8151H522.035C522.109 49.4684 522.399 50.0004 522.903 50.4111C523.407 50.8031 524.051 50.9991 524.835 50.9991C525.581 50.9991 526.16 50.8497 526.571 50.5511C527 50.2337 527.215 49.8137 527.215 49.2911C527.215 48.7871 526.953 48.4044 526.431 48.1431C525.927 47.8817 525.105 47.6111 523.967 47.3311C522.828 47.0511 521.895 46.7711 521.167 46.4911C520.439 46.1924 519.813 45.7351 519.291 45.1191C518.768 44.5031 518.507 43.6911 518.507 42.6831C518.507 41.8057 518.74 41.0124 519.207 40.3031C519.692 39.5751 520.392 39.0057 521.307 38.5951C522.24 38.1657 523.332 37.9511 524.583 37.9511C526.431 37.9511 527.905 38.4177 529.007 39.3511C530.108 40.2657 530.715 41.5071 530.827 43.0751H527.075C527.019 42.4217 526.757 41.8991 526.291 41.5071C525.843 41.1151 525.236 40.9191 524.471 40.9191C523.761 40.9191 523.211 41.0684 522.819 41.3671C522.445 41.6471 522.259 42.0391 522.259 42.5431C522.259 43.0657 522.52 43.4671 523.043 43.7471C523.565 44.0084 524.377 44.2791 525.479 44.5591C526.599 44.8391 527.523 45.1284 528.251 45.4271C528.979 45.7257 529.604 46.1831 530.127 46.7991C530.649 47.3964 530.911 48.2084 530.911 49.2351C530.911 50.1311 530.668 50.9431 530.183 51.6711C529.697 52.3804 528.997 52.9404 528.083 53.3511C527.168 53.7617 526.085 53.9671 524.835 53.9671ZM536.284 25.9951C538.543 27.6751 540.363 29.9711 541.744 32.8831C543.126 35.7764 543.816 38.9591 543.816 42.4311C543.816 45.9217 543.126 49.1231 541.744 52.0351C540.382 54.9284 538.562 57.2244 536.284 58.9231H532.308V58.5591C534.884 56.4684 536.807 54.0511 538.076 51.3071C539.364 48.5444 540.008 45.5857 540.008 42.4311C540.008 39.2951 539.364 36.3551 538.076 33.6111C536.807 30.8484 534.884 28.4311 532.308 26.3591V25.9951H536.284Z" fill="black"/>
<path d="M677.211 122.349V120.279L687.741 105.699H691.011V119.979H694.011V122.349H691.011V127.179H688.311V122.349H677.211ZM688.431 108.549L680.361 119.979H688.431V108.549ZM696.108 110.379C696.108 109.039 696.518 107.969 697.338 107.169C698.158 106.369 699.208 105.969 700.488 105.969C701.768 105.969 702.818 106.369 703.638 107.169C704.458 107.969 704.868 109.039 704.868 110.379C704.868 111.719 704.448 112.799 703.608 113.619C702.788 114.419 701.748 114.819 700.488 114.819C699.208 114.819 698.158 114.419 697.338 113.619C696.518 112.799 696.108 111.719 696.108 110.379ZM712.398 106.239L700.278 127.179H697.548L709.698 106.239H712.398ZM700.488 107.649C699.808 107.649 699.268 107.889 698.868 108.369C698.468 108.829 698.268 109.499 698.268 110.379C698.268 111.259 698.468 111.939 698.868 112.419C699.268 112.879 699.808 113.109 700.488 113.109C701.168 113.109 701.698 112.879 702.078 112.419C702.478 111.939 702.678 111.259 702.678 110.379C702.678 109.499 702.478 108.829 702.078 108.369C701.698 107.889 701.168 107.649 700.488 107.649ZM705.168 123.039C705.168 121.679 705.578 120.599 706.398 119.799C707.218 118.999 708.268 118.599 709.548 118.599C710.828 118.599 711.868 118.999 712.668 119.799C713.488 120.599 713.898 121.679 713.898 123.039C713.898 124.379 713.488 125.459 712.668 126.279C711.848 127.079 710.808 127.479 709.548 127.479C708.268 127.479 707.218 127.079 706.398 126.279C705.578 125.459 705.168 124.379 705.168 123.039ZM709.518 120.309C708.838 120.309 708.298 120.539 707.898 120.999C707.498 121.459 707.298 122.139 707.298 123.039C707.298 123.919 707.498 124.589 707.898 125.049C708.298 125.509 708.838 125.739 709.518 125.739C710.198 125.739 710.738 125.509 711.138 125.049C711.538 124.589 711.738 123.919 711.738 123.039C711.738 122.139 711.538 121.459 711.138 120.999C710.738 120.539 710.198 120.309 709.518 120.309ZM681.802 181.659C680.682 181.219 679.822 180.579 679.222 179.739C678.622 178.899 678.322 177.889 678.322 176.709C678.322 175.609 678.592 174.629 679.132 173.769C679.672 172.889 680.472 172.199 681.532 171.699C682.612 171.179 683.912 170.919 685.432 170.919C686.952 170.919 688.242 171.179 689.302 171.699C690.382 172.199 691.192 172.889 691.732 173.769C692.292 174.649 692.572 175.629 692.572 176.709C692.572 177.869 692.262 178.879 691.642 179.739C691.022 180.599 690.172 181.239 689.092 181.659C690.352 182.059 691.342 182.739 692.062 183.699C692.782 184.659 693.142 185.829 693.142 187.209C693.142 188.549 692.822 189.719 692.182 190.719C691.542 191.699 690.632 192.459 689.452 192.999C688.292 193.519 686.952 193.779 685.432 193.779C683.912 193.779 682.572 193.519 681.412 192.999C680.272 192.459 679.382 191.699 678.742 190.719C678.102 189.719 677.782 188.549 677.782 187.209C677.782 185.809 678.142 184.629 678.862 183.669C679.582 182.709 680.562 182.039 681.802 181.659ZM685.432 173.199C684.072 173.199 682.982 173.529 682.162 174.189C681.362 174.849 680.962 175.799 680.962 177.039C680.962 178.159 681.372 179.069 682.192 179.769C683.032 180.449 684.112 180.789 685.432 180.789C686.772 180.789 687.852 180.439 688.672 179.739C689.512 179.039 689.932 178.129 689.932 177.009C689.932 175.789 689.522 174.849 688.702 174.189C687.902 173.529 686.812 173.199 685.432 173.199ZM685.432 182.859C683.952 182.859 682.742 183.219 681.802 183.939C680.862 184.639 680.392 185.699 680.392 187.119C680.392 188.459 680.842 189.529 681.742 190.329C682.662 191.109 683.892 191.499 685.432 191.499C686.972 191.499 688.192 191.099 689.092 190.299C689.992 189.499 690.442 188.439 690.442 187.119C690.442 185.719 689.982 184.659 689.062 183.939C688.142 183.219 686.932 182.859 685.432 182.859ZM696.138 176.379C696.138 175.039 696.548 173.969 697.368 173.169C698.188 172.369 699.238 171.969 700.518 171.969C701.798 171.969 702.848 172.369 703.668 173.169C704.488 173.969 704.898 175.039 704.898 176.379C704.898 177.719 704.478 178.799 703.638 179.619C702.818 180.419 701.778 180.819 700.518 180.819C699.238 180.819 698.188 180.419 697.368 179.619C696.548 178.799 696.138 177.719 696.138 176.379ZM712.428 172.239L700.308 193.179H697.578L709.728 172.239H712.428ZM700.518 173.649C699.838 173.649 699.298 173.889 698.898 174.369C698.498 174.829 698.298 175.499 698.298 176.379C698.298 177.259 698.498 177.939 698.898 178.419C699.298 178.879 699.838 179.109 700.518 179.109C701.198 179.109 701.728 178.879 702.108 178.419C702.508 177.939 702.708 177.259 702.708 176.379C702.708 175.499 702.508 174.829 702.108 174.369C701.728 173.889 701.198 173.649 700.518 173.649ZM705.198 189.039C705.198 187.679 705.608 186.599 706.428 185.799C707.248 184.999 708.298 184.599 709.578 184.599C710.858 184.599 711.898 184.999 712.698 185.799C713.518 186.599 713.928 187.679 713.928 189.039C713.928 190.379 713.518 191.459 712.698 192.279C711.878 193.079 710.838 193.479 709.578 193.479C708.298 193.479 707.248 193.079 706.428 192.279C705.608 191.459 705.198 190.379 705.198 189.039ZM709.548 186.309C708.868 186.309 708.328 186.539 707.928 186.999C707.528 187.459 707.328 188.139 707.328 189.039C707.328 189.919 707.528 190.589 707.928 191.049C708.328 191.509 708.868 191.739 709.548 191.739C710.228 191.739 710.768 191.509 711.168 191.049C711.568 190.589 711.768 189.919 711.768 189.039C711.768 188.139 711.568 187.459 711.168 186.999C710.768 186.539 710.228 186.309 709.548 186.309ZM673.152 240.399V237.909H678.792V259.179H676.032V240.399H673.152ZM683.152 256.989C685.692 254.949 687.682 253.279 689.122 251.979C690.562 250.679 691.772 249.329 692.752 247.929C693.752 246.509 694.252 245.129 694.252 243.789C694.252 242.549 693.932 241.559 693.292 240.819C692.652 240.059 691.642 239.679 690.262 239.679C688.902 239.679 687.842 240.109 687.082 240.969C686.342 241.809 685.942 242.939 685.882 244.359H683.242C683.322 242.119 684.002 240.389 685.282 239.169C686.562 237.949 688.212 237.339 690.232 237.339C692.292 237.339 693.922 237.909 695.122 239.049C696.342 240.169 696.952 241.709 696.952 243.669C696.952 245.269 696.452 246.849 695.452 248.409C694.472 249.969 693.352 251.339 692.092 252.519C690.832 253.679 689.222 255.059 687.262 256.659H697.582V258.939H683.152V256.989ZM700.107 242.379C700.107 241.039 700.517 239.969 701.337 239.169C702.157 238.369 703.207 237.969 704.487 237.969C705.767 237.969 706.817 238.369 707.637 239.169C708.457 239.969 708.867 241.039 708.867 242.379C708.867 243.719 708.447 244.799 707.607 245.619C706.787 246.419 705.747 246.819 704.487 246.819C703.207 246.819 702.157 246.419 701.337 245.619C700.517 244.799 700.107 243.719 700.107 242.379ZM716.397 238.239L704.277 259.179H701.547L713.697 238.239H716.397ZM704.487 239.649C703.807 239.649 703.267 239.889 702.867 240.369C702.467 240.829 702.267 241.499 702.267 242.379C702.267 243.259 702.467 243.939 702.867 244.419C703.267 244.879 703.807 245.109 704.487 245.109C705.167 245.109 705.697 244.879 706.077 244.419C706.477 243.939 706.677 243.259 706.677 242.379C706.677 241.499 706.477 240.829 706.077 240.369C705.697 239.889 705.167 239.649 704.487 239.649ZM709.167 255.039C709.167 253.679 709.577 252.599 710.397 251.799C711.217 250.999 712.267 250.599 713.547 250.599C714.827 250.599 715.867 250.999 716.667 251.799C717.487 252.599 717.897 253.679 717.897 255.039C717.897 256.379 717.487 257.459 716.667 258.279C715.847 259.079 714.807 259.479 713.547 259.479C712.267 259.479 711.217 259.079 710.397 258.279C709.577 257.459 709.167 256.379 709.167 255.039ZM713.517 252.309C712.837 252.309 712.297 252.539 711.897 252.999C711.497 253.459 711.297 254.139 711.297 255.039C711.297 255.919 711.497 256.589 711.897 257.049C712.297 257.509 712.837 257.739 713.517 257.739C714.197 257.739 714.737 257.509 715.137 257.049C715.537 256.589 715.737 255.919 715.737 255.039C715.737 254.139 715.537 253.459 715.137 252.999C714.737 252.539 714.197 252.309 713.517 252.309ZM672.259 306.399V303.909H677.899V325.179H675.139V306.399H672.259ZM694.678 308.649C694.238 306.429 692.868 305.319 690.568 305.319C688.788 305.319 687.458 306.009 686.578 307.389C685.698 308.749 685.268 310.999 685.288 314.139C685.748 313.099 686.508 312.289 687.568 311.709C688.648 311.109 689.848 310.809 691.168 310.809C693.228 310.809 694.868 311.449 696.088 312.729C697.328 314.009 697.948 315.779 697.948 318.039C697.948 319.399 697.678 320.619 697.138 321.699C696.618 322.779 695.818 323.639 694.738 324.279C693.678 324.919 692.388 325.239 690.868 325.239C688.808 325.239 687.198 324.779 686.038 323.859C684.878 322.939 684.068 321.669 683.608 320.049C683.148 318.429 682.918 316.429 682.918 314.049C682.918 306.709 685.478 303.039 690.598 303.039C692.558 303.039 694.098 303.569 695.218 304.629C696.338 305.689 696.998 307.029 697.198 308.649H694.678ZM690.598 313.119C689.738 313.119 688.928 313.299 688.168 313.659C687.408 313.999 686.788 314.529 686.308 315.249C685.848 315.949 685.618 316.809 685.618 317.829C685.618 319.349 686.058 320.589 686.938 321.549C687.818 322.489 689.078 322.959 690.718 322.959C692.118 322.959 693.228 322.529 694.048 321.669C694.888 320.789 695.308 319.609 695.308 318.129C695.308 316.569 694.908 315.349 694.108 314.469C693.308 313.569 692.138 313.119 690.598 313.119ZM701.001 308.379C701.001 307.039 701.411 305.969 702.231 305.169C703.051 304.369 704.101 303.969 705.381 303.969C706.661 303.969 707.711 304.369 708.531 305.169C709.351 305.969 709.761 307.039 709.761 308.379C709.761 309.719 709.341 310.799 708.501 311.619C707.681 312.419 706.641 312.819 705.381 312.819C704.101 312.819 703.051 312.419 702.231 311.619C701.411 310.799 701.001 309.719 701.001 308.379ZM717.291 304.239L705.171 325.179H702.441L714.591 304.239H717.291ZM705.381 305.649C704.701 305.649 704.161 305.889 703.761 306.369C703.361 306.829 703.161 307.499 703.161 308.379C703.161 309.259 703.361 309.939 703.761 310.419C704.161 310.879 704.701 311.109 705.381 311.109C706.061 311.109 706.591 310.879 706.971 310.419C707.371 309.939 707.571 309.259 707.571 308.379C707.571 307.499 707.371 306.829 706.971 306.369C706.591 305.889 706.061 305.649 705.381 305.649ZM710.061 321.039C710.061 319.679 710.471 318.599 711.291 317.799C712.111 316.999 713.161 316.599 714.441 316.599C715.721 316.599 716.761 316.999 717.561 317.799C718.381 318.599 718.791 319.679 718.791 321.039C718.791 322.379 718.381 323.459 717.561 324.279C716.741 325.079 715.701 325.479 714.441 325.479C713.161 325.479 712.111 325.079 711.291 324.279C710.471 323.459 710.061 322.379 710.061 321.039ZM714.411 318.309C713.731 318.309 713.191 318.539 712.791 318.999C712.391 319.459 712.191 320.139 712.191 321.039C712.191 321.919 712.391 322.589 712.791 323.049C713.191 323.509 713.731 323.739 714.411 323.739C715.091 323.739 715.631 323.509 716.031 323.049C716.431 322.589 716.631 321.919 716.631 321.039C716.631 320.139 716.431 319.459 716.031 318.999C715.631 318.539 715.091 318.309 714.411 318.309ZM668.928 388.989C671.468 386.949 673.458 385.279 674.898 383.979C676.338 382.679 677.548 381.329 678.528 379.929C679.528 378.509 680.028 377.129 680.028 375.789C680.028 374.549 679.708 373.559 679.068 372.819C678.428 372.059 677.418 371.679 676.038 371.679C674.678 371.679 673.618 372.109 672.858 372.969C672.118 373.809 671.718 374.939 671.658 376.359H669.018C669.098 374.119 669.778 372.389 671.058 371.169C672.338 369.949 673.988 369.339 676.008 369.339C678.068 369.339 679.698 369.909 680.898 371.049C682.118 372.169 682.728 373.709 682.728 375.669C682.728 377.269 682.228 378.849 681.228 380.409C680.248 381.969 679.128 383.339 677.868 384.519C676.608 385.679 674.998 387.059 673.038 388.659H683.358V390.939H668.928V388.989ZM688.194 372.309C689.314 370.389 691.274 369.429 694.074 369.429C696.854 369.429 698.804 370.389 699.924 372.309C701.044 374.229 701.604 376.889 701.604 380.289C701.604 383.689 701.044 386.359 699.924 388.299C698.804 390.219 696.854 391.179 694.074 391.179C691.274 391.179 689.314 390.219 688.194 388.299C687.074 386.359 686.514 383.689 686.514 380.289C686.514 376.889 687.074 374.229 688.194 372.309ZM697.134 373.029C696.434 372.289 695.414 371.919 694.074 371.919C692.714 371.919 691.674 372.289 690.954 373.029C690.254 373.749 689.784 374.709 689.544 375.909C689.324 377.109 689.214 378.569 689.214 380.289C689.214 382.029 689.324 383.499 689.544 384.699C689.784 385.899 690.254 386.869 690.954 387.609C691.674 388.329 692.714 388.689 694.074 388.689C695.414 388.689 696.434 388.329 697.134 387.609C697.854 386.869 698.324 385.899 698.544 384.699C698.784 383.499 698.904 382.029 698.904 380.289C698.904 378.569 698.784 377.109 698.544 375.909C698.324 374.709 697.854 373.749 697.134 373.029ZM704.722 374.379C704.722 373.039 705.132 371.969 705.952 371.169C706.772 370.369 707.822 369.969 709.102 369.969C710.382 369.969 711.432 370.369 712.252 371.169C713.072 371.969 713.482 373.039 713.482 374.379C713.482 375.719 713.062 376.799 712.222 377.619C711.402 378.419 710.362 378.819 709.102 378.819C707.822 378.819 706.772 378.419 705.952 377.619C705.132 376.799 704.722 375.719 704.722 374.379ZM721.012 370.239L708.892 391.179H706.162L718.312 370.239H721.012ZM709.102 371.649C708.422 371.649 707.882 371.889 707.482 372.369C707.082 372.829 706.882 373.499 706.882 374.379C706.882 375.259 707.082 375.939 707.482 376.419C707.882 376.879 708.422 377.109 709.102 377.109C709.782 377.109 710.312 376.879 710.692 376.419C711.092 375.939 711.292 375.259 711.292 374.379C711.292 373.499 711.092 372.829 710.692 372.369C710.312 371.889 709.782 371.649 709.102 371.649ZM713.782 387.039C713.782 385.679 714.192 384.599 715.012 383.799C715.832 382.999 716.882 382.599 718.162 382.599C719.442 382.599 720.482 382.999 721.282 383.799C722.102 384.599 722.512 385.679 722.512 387.039C722.512 388.379 722.102 389.459 721.282 390.279C720.462 391.079 719.422 391.479 718.162 391.479C716.882 391.479 715.832 391.079 715.012 390.279C714.192 389.459 713.782 388.379 713.782 387.039ZM718.132 384.309C717.452 384.309 716.912 384.539 716.512 384.999C716.112 385.459 715.912 386.139 715.912 387.039C715.912 387.919 716.112 388.589 716.512 389.049C716.912 389.509 717.452 389.739 718.132 389.739C718.812 389.739 719.352 389.509 719.752 389.049C720.152 388.589 720.352 387.919 720.352 387.039C720.352 386.139 720.152 385.459 719.752 384.999C719.352 384.539 718.812 384.309 718.132 384.309Z" fill="black"/>
<path d="M396.893 108.309C398.013 106.389 399.973 105.429 402.773 105.429C405.553 105.429 407.503 106.389 408.623 108.309C409.743 110.229 410.303 112.889 410.303 116.289C410.303 119.689 409.743 122.359 408.623 124.299C407.503 126.219 405.553 127.179 402.773 127.179C399.973 127.179 398.013 126.219 396.893 124.299C395.773 122.359 395.213 119.689 395.213 116.289C395.213 112.889 395.773 110.229 396.893 108.309ZM405.833 109.029C405.133 108.289 404.113 107.919 402.773 107.919C401.413 107.919 400.373 108.289 399.653 109.029C398.953 109.749 398.483 110.709 398.243 111.909C398.023 113.109 397.913 114.569 397.913 116.289C397.913 118.029 398.023 119.499 398.243 120.699C398.483 121.899 398.953 122.869 399.653 123.609C400.373 124.329 401.413 124.689 402.773 124.689C404.113 124.689 405.133 124.329 405.833 123.609C406.553 122.869 407.023 121.899 407.243 120.699C407.483 119.499 407.603 118.029 407.603 116.289C407.603 114.569 407.483 113.109 407.243 111.909C407.023 110.709 406.553 109.749 405.833 109.029ZM339.16 190.989C341.7 188.949 343.69 187.279 345.13 185.979C346.57 184.679 347.78 183.329 348.76 181.929C349.76 180.509 350.26 179.129 350.26 177.789C350.26 176.549 349.94 175.559 349.3 174.819C348.66 174.059 347.65 173.679 346.27 173.679C344.91 173.679 343.85 174.109 343.09 174.969C342.35 175.809 341.95 176.939 341.89 178.359H339.25C339.33 176.119 340.01 174.389 341.29 173.169C342.57 171.949 344.22 171.339 346.24 171.339C348.3 171.339 349.93 171.909 351.13 173.049C352.35 174.169 352.96 175.709 352.96 177.669C352.96 179.269 352.46 180.849 351.46 182.409C350.48 183.969 349.36 185.339 348.1 186.519C346.84 187.679 345.23 189.059 343.27 190.659H353.59V192.939H339.16V190.989ZM358.426 174.309C359.546 172.389 361.506 171.429 364.306 171.429C367.086 171.429 369.036 172.389 370.156 174.309C371.276 176.229 371.836 178.889 371.836 182.289C371.836 185.689 371.276 188.359 370.156 190.299C369.036 192.219 367.086 193.179 364.306 193.179C361.506 193.179 359.546 192.219 358.426 190.299C357.306 188.359 356.746 185.689 356.746 182.289C356.746 178.889 357.306 176.229 358.426 174.309ZM367.366 175.029C366.666 174.289 365.646 173.919 364.306 173.919C362.946 173.919 361.906 174.289 361.186 175.029C360.486 175.749 360.016 176.709 359.776 177.909C359.556 179.109 359.446 180.569 359.446 182.289C359.446 184.029 359.556 185.499 359.776 186.699C360.016 187.899 360.486 188.869 361.186 189.609C361.906 190.329 362.946 190.689 364.306 190.689C365.646 190.689 366.666 190.329 367.366 189.609C368.086 188.869 368.556 187.899 368.776 186.699C369.016 185.499 369.136 184.029 369.136 182.289C369.136 180.569 369.016 179.109 368.776 177.909C368.556 176.709 368.086 175.749 367.366 175.029ZM377.264 174.309C378.384 172.389 380.344 171.429 383.144 171.429C385.924 171.429 387.874 172.389 388.994 174.309C390.114 176.229 390.674 178.889 390.674 182.289C390.674 185.689 390.114 188.359 388.994 190.299C387.874 192.219 385.924 193.179 383.144 193.179C380.344 193.179 378.384 192.219 377.264 190.299C376.144 188.359 375.584 185.689 375.584 182.289C375.584 178.889 376.144 176.229 377.264 174.309ZM386.204 175.029C385.504 174.289 384.484 173.919 383.144 173.919C381.784 173.919 380.744 174.289 380.024 175.029C379.324 175.749 378.854 176.709 378.614 177.909C378.394 179.109 378.284 180.569 378.284 182.289C378.284 184.029 378.394 185.499 378.614 186.699C378.854 187.899 379.324 188.869 380.024 189.609C380.744 190.329 381.784 190.689 383.144 190.689C384.484 190.689 385.504 190.329 386.204 189.609C386.924 188.869 387.394 187.899 387.614 186.699C387.854 185.499 387.974 184.029 387.974 182.289C387.974 180.569 387.854 179.109 387.614 177.909C387.394 176.709 386.924 175.749 386.204 175.029ZM396.102 174.309C397.222 172.389 399.182 171.429 401.982 171.429C404.762 171.429 406.712 172.389 407.832 174.309C408.952 176.229 409.512 178.889 409.512 182.289C409.512 185.689 408.952 188.359 407.832 190.299C406.712 192.219 404.762 193.179 401.982 193.179C399.182 193.179 397.222 192.219 396.102 190.299C394.982 188.359 394.422 185.689 394.422 182.289C394.422 178.889 394.982 176.229 396.102 174.309ZM405.042 175.029C404.342 174.289 403.322 173.919 401.982 173.919C400.622 173.919 399.582 174.289 398.862 175.029C398.162 175.749 397.692 176.709 397.452 177.909C397.232 179.109 397.122 180.569 397.122 182.289C397.122 184.029 397.232 185.499 397.452 186.699C397.692 187.899 398.162 188.869 398.862 189.609C399.582 190.329 400.622 190.689 401.982 190.689C403.322 190.689 404.342 190.329 405.042 189.609C405.762 188.869 406.232 187.899 406.452 186.699C406.692 185.499 406.812 184.029 406.812 182.289C406.812 180.569 406.692 179.109 406.452 177.909C406.232 176.709 405.762 175.749 405.042 175.029ZM414.939 174.309C416.059 172.389 418.019 171.429 420.819 171.429C423.599 171.429 425.549 172.389 426.669 174.309C427.789 176.229 428.349 178.889 428.349 182.289C428.349 185.689 427.789 188.359 426.669 190.299C425.549 192.219 423.599 193.179 420.819 193.179C418.019 193.179 416.059 192.219 414.939 190.299C413.819 188.359 413.259 185.689 413.259 182.289C413.259 178.889 413.819 176.229 414.939 174.309ZM423.879 175.029C423.179 174.289 422.159 173.919 420.819 173.919C419.459 173.919 418.419 174.289 417.699 175.029C416.999 175.749 416.529 176.709 416.289 177.909C416.069 179.109 415.959 180.569 415.959 182.289C415.959 184.029 416.069 185.499 416.289 186.699C416.529 187.899 416.999 188.869 417.699 189.609C418.419 190.329 419.459 190.689 420.819 190.689C422.159 190.689 423.179 190.329 423.879 189.609C424.599 188.869 425.069 187.899 425.289 186.699C425.529 185.499 425.649 184.029 425.649 182.289C425.649 180.569 425.529 179.109 425.289 177.909C425.069 176.709 424.599 175.749 423.879 175.029ZM433.777 174.309C434.897 172.389 436.857 171.429 439.657 171.429C442.437 171.429 444.387 172.389 445.507 174.309C446.627 176.229 447.187 178.889 447.187 182.289C447.187 185.689 446.627 188.359 445.507 190.299C444.387 192.219 442.437 193.179 439.657 193.179C436.857 193.179 434.897 192.219 433.777 190.299C432.657 188.359 432.097 185.689 432.097 182.289C432.097 178.889 432.657 176.229 433.777 174.309ZM442.717 175.029C442.017 174.289 440.997 173.919 439.657 173.919C438.297 173.919 437.257 174.289 436.537 175.029C435.837 175.749 435.367 176.709 435.127 177.909C434.907 179.109 434.797 180.569 434.797 182.289C434.797 184.029 434.907 185.499 435.127 186.699C435.367 187.899 435.837 188.869 436.537 189.609C437.257 190.329 438.297 190.689 439.657 190.689C440.997 190.689 442.017 190.329 442.717 189.609C443.437 188.869 443.907 187.899 444.127 186.699C444.367 185.499 444.487 184.029 444.487 182.289C444.487 180.569 444.367 179.109 444.127 177.909C443.907 176.709 443.437 175.749 442.717 175.029ZM452.615 174.309C453.735 172.389 455.695 171.429 458.495 171.429C461.275 171.429 463.225 172.389 464.345 174.309C465.465 176.229 466.025 178.889 466.025 182.289C466.025 185.689 465.465 188.359 464.345 190.299C463.225 192.219 461.275 193.179 458.495 193.179C455.695 193.179 453.735 192.219 452.615 190.299C451.495 188.359 450.935 185.689 450.935 182.289C450.935 178.889 451.495 176.229 452.615 174.309ZM461.555 175.029C460.855 174.289 459.835 173.919 458.495 173.919C457.135 173.919 456.095 174.289 455.375 175.029C454.675 175.749 454.205 176.709 453.965 177.909C453.745 179.109 453.635 180.569 453.635 182.289C453.635 184.029 453.745 185.499 453.965 186.699C454.205 187.899 454.675 188.869 455.375 189.609C456.095 190.329 457.135 190.689 458.495 190.689C459.835 190.689 460.855 190.329 461.555 189.609C462.275 188.869 462.745 187.899 462.965 186.699C463.205 185.499 463.325 184.029 463.325 182.289C463.325 180.569 463.205 179.109 462.965 177.909C462.745 176.709 462.275 175.749 461.555 175.029ZM333.174 240.399V237.909H338.814V259.179H336.054V240.399H333.174ZM345.184 240.309C346.304 238.389 348.264 237.429 351.064 237.429C353.844 237.429 355.794 238.389 356.914 240.309C358.034 242.229 358.594 244.889 358.594 248.289C358.594 251.689 358.034 254.359 356.914 256.299C355.794 258.219 353.844 259.179 351.064 259.179C348.264 259.179 346.304 258.219 345.184 256.299C344.064 254.359 343.504 251.689 343.504 248.289C343.504 244.889 344.064 242.229 345.184 240.309ZM354.124 241.029C353.424 240.289 352.404 239.919 351.064 239.919C349.704 239.919 348.664 240.289 347.944 241.029C347.244 241.749 346.774 242.709 346.534 243.909C346.314 245.109 346.204 246.569 346.204 248.289C346.204 250.029 346.314 251.499 346.534 252.699C346.774 253.899 347.244 254.869 347.944 255.609C348.664 256.329 349.704 256.689 351.064 256.689C352.404 256.689 353.424 256.329 354.124 255.609C354.844 254.869 355.314 253.899 355.534 252.699C355.774 251.499 355.894 250.029 355.894 248.289C355.894 246.569 355.774 245.109 355.534 243.909C355.314 242.709 354.844 241.749 354.124 241.029ZM364.021 240.309C365.141 238.389 367.101 237.429 369.901 237.429C372.681 237.429 374.631 238.389 375.751 240.309C376.871 242.229 377.431 244.889 377.431 248.289C377.431 251.689 376.871 254.359 375.751 256.299C374.631 258.219 372.681 259.179 369.901 259.179C367.101 259.179 365.141 258.219 364.021 256.299C362.901 254.359 362.341 251.689 362.341 248.289C362.341 244.889 362.901 242.229 364.021 240.309ZM372.961 241.029C372.261 240.289 371.241 239.919 369.901 239.919C368.541 239.919 367.501 240.289 366.781 241.029C366.081 241.749 365.611 242.709 365.371 243.909C365.151 245.109 365.041 246.569 365.041 248.289C365.041 250.029 365.151 251.499 365.371 252.699C365.611 253.899 366.081 254.869 366.781 255.609C367.501 256.329 368.541 256.689 369.901 256.689C371.241 256.689 372.261 256.329 372.961 255.609C373.681 254.869 374.151 253.899 374.371 252.699C374.611 251.499 374.731 250.029 374.731 248.289C374.731 246.569 374.611 245.109 374.371 243.909C374.151 242.709 373.681 241.749 372.961 241.029ZM382.859 240.309C383.979 238.389 385.939 237.429 388.739 237.429C391.519 237.429 393.469 238.389 394.589 240.309C395.709 242.229 396.269 244.889 396.269 248.289C396.269 251.689 395.709 254.359 394.589 256.299C393.469 258.219 391.519 259.179 388.739 259.179C385.939 259.179 383.979 258.219 382.859 256.299C381.739 254.359 381.179 251.689 381.179 248.289C381.179 244.889 381.739 242.229 382.859 240.309ZM391.799 241.029C391.099 240.289 390.079 239.919 388.739 239.919C387.379 239.919 386.339 240.289 385.619 241.029C384.919 241.749 384.449 242.709 384.209 243.909C383.989 245.109 383.879 246.569 383.879 248.289C383.879 250.029 383.989 251.499 384.209 252.699C384.449 253.899 384.919 254.869 385.619 255.609C386.339 256.329 387.379 256.689 388.739 256.689C390.079 256.689 391.099 256.329 391.799 255.609C392.519 254.869 392.989 253.899 393.209 252.699C393.449 251.499 393.569 250.029 393.569 248.289C393.569 246.569 393.449 245.109 393.209 243.909C392.989 242.709 392.519 241.749 391.799 241.029ZM401.697 240.309C402.817 238.389 404.777 237.429 407.577 237.429C410.357 237.429 412.307 238.389 413.427 240.309C414.547 242.229 415.107 244.889 415.107 248.289C415.107 251.689 414.547 254.359 413.427 256.299C412.307 258.219 410.357 259.179 407.577 259.179C404.777 259.179 402.817 258.219 401.697 256.299C400.577 254.359 400.017 251.689 400.017 248.289C400.017 244.889 400.577 242.229 401.697 240.309ZM410.637 241.029C409.937 240.289 408.917 239.919 407.577 239.919C406.217 239.919 405.177 240.289 404.457 241.029C403.757 241.749 403.287 242.709 403.047 243.909C402.827 245.109 402.717 246.569 402.717 248.289C402.717 250.029 402.827 251.499 403.047 252.699C403.287 253.899 403.757 254.869 404.457 255.609C405.177 256.329 406.217 256.689 407.577 256.689C408.917 256.689 409.937 256.329 410.637 255.609C411.357 254.869 411.827 253.899 412.047 252.699C412.287 251.499 412.407 250.029 412.407 248.289C412.407 246.569 412.287 245.109 412.047 243.909C411.827 242.709 411.357 241.749 410.637 241.029ZM420.535 240.309C421.655 238.389 423.615 237.429 426.415 237.429C429.195 237.429 431.145 238.389 432.265 240.309C433.385 242.229 433.945 244.889 433.945 248.289C433.945 251.689 433.385 254.359 432.265 256.299C431.145 258.219 429.195 259.179 426.415 259.179C423.615 259.179 421.655 258.219 420.535 256.299C419.415 254.359 418.855 251.689 418.855 248.289C418.855 244.889 419.415 242.229 420.535 240.309ZM429.475 241.029C428.775 240.289 427.755 239.919 426.415 239.919C425.055 239.919 424.015 240.289 423.295 241.029C422.595 241.749 422.125 242.709 421.885 243.909C421.665 245.109 421.555 246.569 421.555 248.289C421.555 250.029 421.665 251.499 421.885 252.699C422.125 253.899 422.595 254.869 423.295 255.609C424.015 256.329 425.055 256.689 426.415 256.689C427.755 256.689 428.775 256.329 429.475 255.609C430.195 254.869 430.665 253.899 430.885 252.699C431.125 251.499 431.245 250.029 431.245 248.289C431.245 246.569 431.125 245.109 430.885 243.909C430.665 242.709 430.195 241.749 429.475 241.029ZM439.373 240.309C440.493 238.389 442.453 237.429 445.253 237.429C448.033 237.429 449.983 238.389 451.103 240.309C452.223 242.229 452.783 244.889 452.783 248.289C452.783 251.689 452.223 254.359 451.103 256.299C449.983 258.219 448.033 259.179 445.253 259.179C442.453 259.179 440.493 258.219 439.373 256.299C438.253 254.359 437.693 251.689 437.693 248.289C437.693 244.889 438.253 242.229 439.373 240.309ZM448.313 241.029C447.613 240.289 446.593 239.919 445.253 239.919C443.893 239.919 442.853 240.289 442.133 241.029C441.433 241.749 440.963 242.709 440.723 243.909C440.503 245.109 440.393 246.569 440.393 248.289C440.393 250.029 440.503 251.499 440.723 252.699C440.963 253.899 441.433 254.869 442.133 255.609C442.853 256.329 443.893 256.689 445.253 256.689C446.593 256.689 447.613 256.329 448.313 255.609C449.033 254.869 449.503 253.899 449.723 252.699C449.963 251.499 450.083 250.029 450.083 248.289C450.083 246.569 449.963 245.109 449.723 243.909C449.503 242.709 449.033 241.749 448.313 241.029ZM458.211 240.309C459.331 238.389 461.291 237.429 464.091 237.429C466.871 237.429 468.821 238.389 469.941 240.309C471.061 242.229 471.621 244.889 471.621 248.289C471.621 251.689 471.061 254.359 469.941 256.299C468.821 258.219 466.871 259.179 464.091 259.179C461.291 259.179 459.331 258.219 458.211 256.299C457.091 254.359 456.531 251.689 456.531 248.289C456.531 244.889 457.091 242.229 458.211 240.309ZM467.151 241.029C466.451 240.289 465.431 239.919 464.091 239.919C462.731 239.919 461.691 240.289 460.971 241.029C460.271 241.749 459.801 242.709 459.561 243.909C459.341 245.109 459.231 246.569 459.231 248.289C459.231 250.029 459.341 251.499 459.561 252.699C459.801 253.899 460.271 254.869 460.971 255.609C461.691 256.329 462.731 256.689 464.091 256.689C465.431 256.689 466.451 256.329 467.151 255.609C467.871 254.869 468.341 253.899 468.561 252.699C468.801 251.499 468.921 250.029 468.921 248.289C468.921 246.569 468.801 245.109 468.561 243.909C468.341 242.709 467.871 241.749 467.151 241.029ZM343.11 305.859H332.58V312.699C333.04 312.059 333.72 311.539 334.62 311.139C335.52 310.719 336.49 310.509 337.53 310.509C339.19 310.509 340.54 310.859 341.58 311.559C342.62 312.239 343.36 313.129 343.8 314.229C344.26 315.309 344.49 316.459 344.49 317.679C344.49 319.119 344.22 320.409 343.68 321.549C343.14 322.689 342.31 323.589 341.19 324.249C340.09 324.909 338.72 325.239 337.08 325.239C334.98 325.239 333.28 324.699 331.98 323.619C330.68 322.539 329.89 321.099 329.61 319.299H332.28C332.54 320.439 333.09 321.329 333.93 321.969C334.77 322.609 335.83 322.929 337.11 322.929C338.69 322.929 339.88 322.459 340.68 321.519C341.48 320.559 341.88 319.299 341.88 317.739C341.88 316.179 341.48 314.979 340.68 314.139C339.88 313.279 338.7 312.849 337.14 312.849C336.08 312.849 335.15 313.109 334.35 313.629C333.57 314.129 333 314.819 332.64 315.699H330.06V303.459H343.11V305.859ZM349.798 306.309C350.918 304.389 352.878 303.429 355.678 303.429C358.458 303.429 360.408 304.389 361.528 306.309C362.648 308.229 363.208 310.889 363.208 314.289C363.208 317.689 362.648 320.359 361.528 322.299C360.408 324.219 358.458 325.179 355.678 325.179C352.878 325.179 350.918 324.219 349.798 322.299C348.678 320.359 348.118 317.689 348.118 314.289C348.118 310.889 348.678 308.229 349.798 306.309ZM358.738 307.029C358.038 306.289 357.018 305.919 355.678 305.919C354.318 305.919 353.278 306.289 352.558 307.029C351.858 307.749 351.388 308.709 351.148 309.909C350.928 311.109 350.818 312.569 350.818 314.289C350.818 316.029 350.928 317.499 351.148 318.699C351.388 319.899 351.858 320.869 352.558 321.609C353.278 322.329 354.318 322.689 355.678 322.689C357.018 322.689 358.038 322.329 358.738 321.609C359.458 320.869 359.928 319.899 360.148 318.699C360.388 317.499 360.508 316.029 360.508 314.289C360.508 312.569 360.388 311.109 360.148 309.909C359.928 308.709 359.458 307.749 358.738 307.029ZM368.636 306.309C369.756 304.389 371.716 303.429 374.516 303.429C377.296 303.429 379.246 304.389 380.366 306.309C381.486 308.229 382.046 310.889 382.046 314.289C382.046 317.689 381.486 320.359 380.366 322.299C379.246 324.219 377.296 325.179 374.516 325.179C371.716 325.179 369.756 324.219 368.636 322.299C367.516 320.359 366.956 317.689 366.956 314.289C366.956 310.889 367.516 308.229 368.636 306.309ZM377.576 307.029C376.876 306.289 375.856 305.919 374.516 305.919C373.156 305.919 372.116 306.289 371.396 307.029C370.696 307.749 370.226 308.709 369.986 309.909C369.766 311.109 369.656 312.569 369.656 314.289C369.656 316.029 369.766 317.499 369.986 318.699C370.226 319.899 370.696 320.869 371.396 321.609C372.116 322.329 373.156 322.689 374.516 322.689C375.856 322.689 376.876 322.329 377.576 321.609C378.296 320.869 378.766 319.899 378.986 318.699C379.226 317.499 379.346 316.029 379.346 314.289C379.346 312.569 379.226 311.109 378.986 309.909C378.766 308.709 378.296 307.749 377.576 307.029ZM387.474 306.309C388.594 304.389 390.554 303.429 393.354 303.429C396.134 303.429 398.084 304.389 399.204 306.309C400.324 308.229 400.884 310.889 400.884 314.289C400.884 317.689 400.324 320.359 399.204 322.299C398.084 324.219 396.134 325.179 393.354 325.179C390.554 325.179 388.594 324.219 387.474 322.299C386.354 320.359 385.794 317.689 385.794 314.289C385.794 310.889 386.354 308.229 387.474 306.309ZM396.414 307.029C395.714 306.289 394.694 305.919 393.354 305.919C391.994 305.919 390.954 306.289 390.234 307.029C389.534 307.749 389.064 308.709 388.824 309.909C388.604 311.109 388.494 312.569 388.494 314.289C388.494 316.029 388.604 317.499 388.824 318.699C389.064 319.899 389.534 320.869 390.234 321.609C390.954 322.329 391.994 322.689 393.354 322.689C394.694 322.689 395.714 322.329 396.414 321.609C397.134 320.869 397.604 319.899 397.824 318.699C398.064 317.499 398.184 316.029 398.184 314.289C398.184 312.569 398.064 311.109 397.824 309.909C397.604 308.709 397.134 307.749 396.414 307.029ZM406.311 306.309C407.431 304.389 409.391 303.429 412.191 303.429C414.971 303.429 416.921 304.389 418.041 306.309C419.161 308.229 419.721 310.889 419.721 314.289C419.721 317.689 419.161 320.359 418.041 322.299C416.921 324.219 414.971 325.179 412.191 325.179C409.391 325.179 407.431 324.219 406.311 322.299C405.191 320.359 404.631 317.689 404.631 314.289C404.631 310.889 405.191 308.229 406.311 306.309ZM415.251 307.029C414.551 306.289 413.531 305.919 412.191 305.919C410.831 305.919 409.791 306.289 409.071 307.029C408.371 307.749 407.901 308.709 407.661 309.909C407.441 311.109 407.331 312.569 407.331 314.289C407.331 316.029 407.441 317.499 407.661 318.699C407.901 319.899 408.371 320.869 409.071 321.609C409.791 322.329 410.831 322.689 412.191 322.689C413.531 322.689 414.551 322.329 415.251 321.609C415.971 320.869 416.441 319.899 416.661 318.699C416.901 317.499 417.021 316.029 417.021 314.289C417.021 312.569 416.901 311.109 416.661 309.909C416.441 308.709 415.971 307.749 415.251 307.029ZM425.149 306.309C426.269 304.389 428.229 303.429 431.029 303.429C433.809 303.429 435.759 304.389 436.879 306.309C437.999 308.229 438.559 310.889 438.559 314.289C438.559 317.689 437.999 320.359 436.879 322.299C435.759 324.219 433.809 325.179 431.029 325.179C428.229 325.179 426.269 324.219 425.149 322.299C424.029 320.359 423.469 317.689 423.469 314.289C423.469 310.889 424.029 308.229 425.149 306.309ZM434.089 307.029C433.389 306.289 432.369 305.919 431.029 305.919C429.669 305.919 428.629 306.289 427.909 307.029C427.209 307.749 426.739 308.709 426.499 309.909C426.279 311.109 426.169 312.569 426.169 314.289C426.169 316.029 426.279 317.499 426.499 318.699C426.739 319.899 427.209 320.869 427.909 321.609C428.629 322.329 429.669 322.689 431.029 322.689C432.369 322.689 433.389 322.329 434.089 321.609C434.809 320.869 435.279 319.899 435.499 318.699C435.739 317.499 435.859 316.029 435.859 314.289C435.859 312.569 435.739 311.109 435.499 309.909C435.279 308.709 434.809 307.749 434.089 307.029ZM443.987 306.309C445.107 304.389 447.067 303.429 449.867 303.429C452.647 303.429 454.597 304.389 455.717 306.309C456.837 308.229 457.397 310.889 457.397 314.289C457.397 317.689 456.837 320.359 455.717 322.299C454.597 324.219 452.647 325.179 449.867 325.179C447.067 325.179 445.107 324.219 443.987 322.299C442.867 320.359 442.307 317.689 442.307 314.289C442.307 310.889 442.867 308.229 443.987 306.309ZM452.927 307.029C452.227 306.289 451.207 305.919 449.867 305.919C448.507 305.919 447.467 306.289 446.747 307.029C446.047 307.749 445.577 308.709 445.337 309.909C445.117 311.109 445.007 312.569 445.007 314.289C445.007 316.029 445.117 317.499 445.337 318.699C445.577 319.899 446.047 320.869 446.747 321.609C447.467 322.329 448.507 322.689 449.867 322.689C451.207 322.689 452.227 322.329 452.927 321.609C453.647 320.869 454.117 319.899 454.337 318.699C454.577 317.499 454.697 316.029 454.697 314.289C454.697 312.569 454.577 311.109 454.337 309.909C454.117 308.709 453.647 307.749 452.927 307.029ZM462.825 306.309C463.945 304.389 465.905 303.429 468.705 303.429C471.485 303.429 473.435 304.389 474.555 306.309C475.675 308.229 476.235 310.889 476.235 314.289C476.235 317.689 475.675 320.359 474.555 322.299C473.435 324.219 471.485 325.179 468.705 325.179C465.905 325.179 463.945 324.219 462.825 322.299C461.705 320.359 461.145 317.689 461.145 314.289C461.145 310.889 461.705 308.229 462.825 306.309ZM471.765 307.029C471.065 306.289 470.045 305.919 468.705 305.919C467.345 305.919 466.305 306.289 465.585 307.029C464.885 307.749 464.415 308.709 464.175 309.909C463.955 311.109 463.845 312.569 463.845 314.289C463.845 316.029 463.955 317.499 464.175 318.699C464.415 319.899 464.885 320.869 465.585 321.609C466.305 322.329 467.345 322.689 468.705 322.689C470.045 322.689 471.065 322.329 471.765 321.609C472.485 320.869 472.955 319.899 473.175 318.699C473.415 317.499 473.535 316.029 473.535 314.289C473.535 312.569 473.415 311.109 473.175 309.909C472.955 308.709 472.485 307.749 471.765 307.029ZM323.755 372.399V369.909H329.395V391.179H326.635V372.399H323.755ZM347.915 371.859H337.385V378.699C337.845 378.059 338.525 377.539 339.425 377.139C340.325 376.719 341.295 376.509 342.335 376.509C343.995 376.509 345.345 376.859 346.385 377.559C347.425 378.239 348.165 379.129 348.605 380.229C349.065 381.309 349.295 382.459 349.295 383.679C349.295 385.119 349.025 386.409 348.485 387.549C347.945 388.689 347.115 389.589 345.995 390.249C344.895 390.909 343.525 391.239 341.885 391.239C339.785 391.239 338.085 390.699 336.785 389.619C335.485 388.539 334.695 387.099 334.415 385.299H337.085C337.345 386.439 337.895 387.329 338.735 387.969C339.575 388.609 340.635 388.929 341.915 388.929C343.495 388.929 344.685 388.459 345.485 387.519C346.285 386.559 346.685 385.299 346.685 383.739C346.685 382.179 346.285 380.979 345.485 380.139C344.685 379.279 343.505 378.849 341.945 378.849C340.885 378.849 339.955 379.109 339.155 379.629C338.375 380.129 337.805 380.819 337.445 381.699H334.865V369.459H347.915V371.859ZM354.603 372.309C355.723 370.389 357.683 369.429 360.483 369.429C363.263 369.429 365.213 370.389 366.333 372.309C367.452 374.229 368.012 376.889 368.012 380.289C368.012 383.689 367.452 386.359 366.333 388.299C365.213 390.219 363.263 391.179 360.483 391.179C357.683 391.179 355.723 390.219 354.603 388.299C353.483 386.359 352.923 383.689 352.923 380.289C352.923 376.889 353.483 374.229 354.603 372.309ZM363.543 373.029C362.843 372.289 361.823 371.919 360.483 371.919C359.123 371.919 358.083 372.289 357.363 373.029C356.663 373.749 356.193 374.709 355.953 375.909C355.733 377.109 355.623 378.569 355.623 380.289C355.623 382.029 355.733 383.499 355.953 384.699C356.193 385.899 356.663 386.869 357.363 387.609C358.083 388.329 359.123 388.689 360.483 388.689C361.823 388.689 362.843 388.329 363.543 387.609C364.263 386.869 364.733 385.899 364.953 384.699C365.193 383.499 365.313 382.029 365.313 380.289C365.313 378.569 365.193 377.109 364.953 375.909C364.733 374.709 364.263 373.749 363.543 373.029ZM373.44 372.309C374.56 370.389 376.52 369.429 379.32 369.429C382.1 369.429 384.05 370.389 385.17 372.309C386.29 374.229 386.85 376.889 386.85 380.289C386.85 383.689 386.29 386.359 385.17 388.299C384.05 390.219 382.1 391.179 379.32 391.179C376.52 391.179 374.56 390.219 373.44 388.299C372.32 386.359 371.76 383.689 371.76 380.289C371.76 376.889 372.32 374.229 373.44 372.309ZM382.38 373.029C381.68 372.289 380.66 371.919 379.32 371.919C377.96 371.919 376.92 372.289 376.2 373.029C375.5 373.749 375.03 374.709 374.79 375.909C374.57 377.109 374.46 378.569 374.46 380.289C374.46 382.029 374.57 383.499 374.79 384.699C375.03 385.899 375.5 386.869 376.2 387.609C376.92 388.329 377.96 388.689 379.32 388.689C380.66 388.689 381.68 388.329 382.38 387.609C383.1 386.869 383.57 385.899 383.79 384.699C384.03 383.499 384.15 382.029 384.15 380.289C384.15 378.569 384.03 377.109 383.79 375.909C383.57 374.709 383.1 373.749 382.38 373.029ZM392.278 372.309C393.398 370.389 395.358 369.429 398.158 369.429C400.938 369.429 402.888 370.389 404.008 372.309C405.128 374.229 405.688 376.889 405.688 380.289C405.688 383.689 405.128 386.359 404.008 388.299C402.888 390.219 400.938 391.179 398.158 391.179C395.358 391.179 393.398 390.219 392.278 388.299C391.158 386.359 390.598 383.689 390.598 380.289C390.598 376.889 391.158 374.229 392.278 372.309ZM401.218 373.029C400.518 372.289 399.498 371.919 398.158 371.919C396.798 371.919 395.758 372.289 395.038 373.029C394.338 373.749 393.868 374.709 393.628 375.909C393.408 377.109 393.298 378.569 393.298 380.289C393.298 382.029 393.408 383.499 393.628 384.699C393.868 385.899 394.338 386.869 395.038 387.609C395.758 388.329 396.798 388.689 398.158 388.689C399.498 388.689 400.518 388.329 401.218 387.609C401.938 386.869 402.408 385.899 402.628 384.699C402.868 383.499 402.988 382.029 402.988 380.289C402.988 378.569 402.868 377.109 402.628 375.909C402.408 374.709 401.938 373.749 401.218 373.029ZM411.116 372.309C412.236 370.389 414.196 369.429 416.996 369.429C419.776 369.429 421.726 370.389 422.846 372.309C423.966 374.229 424.526 376.889 424.526 380.289C424.526 383.689 423.966 386.359 422.846 388.299C421.726 390.219 419.776 391.179 416.996 391.179C414.196 391.179 412.236 390.219 411.116 388.299C409.996 386.359 409.436 383.689 409.436 380.289C409.436 376.889 409.996 374.229 411.116 372.309ZM420.056 373.029C419.356 372.289 418.336 371.919 416.996 371.919C415.636 371.919 414.596 372.289 413.876 373.029C413.176 373.749 412.706 374.709 412.466 375.909C412.246 377.109 412.136 378.569 412.136 380.289C412.136 382.029 412.246 383.499 412.466 384.699C412.706 385.899 413.176 386.869 413.876 387.609C414.596 388.329 415.636 388.689 416.996 388.689C418.336 388.689 419.356 388.329 420.056 387.609C420.776 386.869 421.246 385.899 421.466 384.699C421.706 383.499 421.826 382.029 421.826 380.289C421.826 378.569 421.706 377.109 421.466 375.909C421.246 374.709 420.776 373.749 420.056 373.029ZM429.954 372.309C431.074 370.389 433.034 369.429 435.834 369.429C438.614 369.429 440.564 370.389 441.684 372.309C442.804 374.229 443.364 376.889 443.364 380.289C443.364 383.689 442.804 386.359 441.684 388.299C440.564 390.219 438.614 391.179 435.834 391.179C433.034 391.179 431.074 390.219 429.954 388.299C428.834 386.359 428.274 383.689 428.274 380.289C428.274 376.889 428.834 374.229 429.954 372.309ZM438.894 373.029C438.194 372.289 437.174 371.919 435.834 371.919C434.474 371.919 433.434 372.289 432.714 373.029C432.014 373.749 431.544 374.709 431.304 375.909C431.084 377.109 430.974 378.569 430.974 380.289C430.974 382.029 431.084 383.499 431.304 384.699C431.544 385.899 432.014 386.869 432.714 387.609C433.434 388.329 434.474 388.689 435.834 388.689C437.174 388.689 438.194 388.329 438.894 387.609C439.614 386.869 440.084 385.899 440.304 384.699C440.544 383.499 440.664 382.029 440.664 380.289C440.664 378.569 440.544 377.109 440.304 375.909C440.084 374.709 439.614 373.749 438.894 373.029ZM448.792 372.309C449.912 370.389 451.872 369.429 454.672 369.429C457.452 369.429 459.402 370.389 460.522 372.309C461.642 374.229 462.202 376.889 462.202 380.289C462.202 383.689 461.642 386.359 460.522 388.299C459.402 390.219 457.452 391.179 454.672 391.179C451.872 391.179 449.912 390.219 448.792 388.299C447.672 386.359 447.112 383.689 447.112 380.289C447.112 376.889 447.672 374.229 448.792 372.309ZM457.732 373.029C457.032 372.289 456.012 371.919 454.672 371.919C453.312 371.919 452.272 372.289 451.552 373.029C450.852 373.749 450.382 374.709 450.142 375.909C449.922 377.109 449.812 378.569 449.812 380.289C449.812 382.029 449.922 383.499 450.142 384.699C450.382 385.899 450.852 386.869 451.552 387.609C452.272 388.329 453.312 388.689 454.672 388.689C456.012 388.689 457.032 388.329 457.732 387.609C458.452 386.869 458.922 385.899 459.142 384.699C459.382 383.499 459.502 382.029 459.502 380.289C459.502 378.569 459.382 377.109 459.142 375.909C458.922 374.709 458.452 373.749 457.732 373.029ZM467.63 372.309C468.75 370.389 470.71 369.429 473.51 369.429C476.29 369.429 478.24 370.389 479.36 372.309C480.48 374.229 481.04 376.889 481.04 380.289C481.04 383.689 480.48 386.359 479.36 388.299C478.24 390.219 476.29 391.179 473.51 391.179C470.71 391.179 468.75 390.219 467.63 388.299C466.51 386.359 465.95 383.689 465.95 380.289C465.95 376.889 466.51 374.229 467.63 372.309ZM476.57 373.029C475.87 372.289 474.85 371.919 473.51 371.919C472.15 371.919 471.11 372.289 470.39 373.029C469.69 373.749 469.22 374.709 468.98 375.909C468.76 377.109 468.65 378.569 468.65 380.289C468.65 382.029 468.76 383.499 468.98 384.699C469.22 385.899 469.69 386.869 470.39 387.609C471.11 388.329 472.15 388.689 473.51 388.689C474.85 388.689 475.87 388.329 476.57 387.609C477.29 386.869 477.76 385.899 477.98 384.699C478.22 383.499 478.34 382.029 478.34 380.289C478.34 378.569 478.22 377.109 477.98 375.909C477.76 374.709 477.29 373.749 476.57 373.029Z" fill="black"/>
<path d="M51.7403 49.9701H59.7903V53.7151H46.8403V29.2851H51.7403V49.9701ZM80.9297 43.5651C80.9297 44.2184 80.8831 44.8251 80.7897 45.3851H66.6147C66.7081 46.8084 67.1864 47.9284 68.0497 48.7451C68.9131 49.5617 69.9864 49.9701 71.2697 49.9701C73.0897 49.9701 74.3847 49.1884 75.1547 47.6251H80.4397C79.8797 49.4917 78.8064 51.0317 77.2197 52.2451C75.6331 53.4351 73.6847 54.0301 71.3747 54.0301C69.5081 54.0301 67.8281 53.6217 66.3347 52.8051C64.8647 51.9651 63.7097 50.7867 62.8697 49.2701C62.0531 47.7534 61.6447 46.0034 61.6447 44.0201C61.6447 42.0134 62.0531 40.2517 62.8697 38.7351C63.6864 37.2184 64.8297 36.0517 66.2997 35.2351C67.7697 34.4184 69.4614 34.0101 71.3747 34.0101C73.2181 34.0101 74.8631 34.4067 76.3097 35.2001C77.7797 35.9934 78.9114 37.1134 79.7047 38.5601C80.5214 40.0067 80.9297 41.6751 80.9297 43.5651ZM75.8547 42.4101C75.8314 41.0567 75.3764 39.9951 74.4897 39.2251C73.6264 38.4317 72.5414 38.0351 71.2347 38.0351C69.9981 38.0351 68.9597 38.4317 68.1197 39.2251C67.2797 39.9951 66.7781 41.0567 66.6147 42.4101H75.8547ZM92.5913 49.2001L97.4913 34.3251H102.741L95.6013 53.7151H89.5813L82.4413 34.3251H87.6913L92.5913 49.2001ZM123.483 43.5651C123.483 44.2184 123.437 44.8251 123.343 45.3851H109.168C109.262 46.8084 109.74 47.9284 110.603 48.7451C111.467 49.5617 112.54 49.9701 113.823 49.9701C115.643 49.9701 116.938 49.1884 117.708 47.6251H122.993C122.433 49.4917 121.36 51.0317 119.773 52.2451C118.187 53.4351 116.238 54.0301 113.928 54.0301C112.062 54.0301 110.382 53.6217 108.888 52.8051C107.418 51.9651 106.263 50.7867 105.423 49.2701C104.607 47.7534 104.198 46.0034 104.198 44.0201C104.198 42.0134 104.607 40.2517 105.423 38.7351C106.24 37.2184 107.383 36.0517 108.853 35.2351C110.323 34.4184 112.015 34.0101 113.928 34.0101C115.772 34.0101 117.417 34.4067 118.863 35.2001C120.333 35.9934 121.465 37.1134 122.258 38.5601C123.075 40.0067 123.483 41.6751 123.483 43.5651ZM118.408 42.4101C118.385 41.0567 117.93 39.9951 117.043 39.2251C116.18 38.4317 115.095 38.0351 113.788 38.0351C112.552 38.0351 111.513 38.4317 110.673 39.2251C109.833 39.9951 109.332 41.0567 109.168 42.4101H118.408ZM131.96 27.8151V53.7151H127.06V27.8151H131.96Z" fill="black"/>
<path d="M86.2453 106.269C88.5253 106.269 90.4953 106.699 92.1553 107.559C93.8353 108.399 95.1153 109.609 95.9953 111.189C96.8953 112.769 97.3453 114.629 97.3453 116.769C97.3453 118.909 96.8953 120.769 95.9953 122.349C95.1153 123.909 93.8353 125.109 92.1553 125.949C90.4953 126.769 88.5253 127.179 86.2453 127.179H79.7353V106.269H86.2453ZM86.2453 125.079C88.9253 125.079 90.9753 124.349 92.3953 122.889C93.8353 121.409 94.5553 119.369 94.5553 116.769C94.5553 114.169 93.8353 112.139 92.3953 110.679C90.9753 109.219 88.9253 108.489 86.2453 108.489H82.4653V125.079H86.2453ZM78.7153 182.709C78.7153 180.669 79.1753 178.839 80.0953 177.219C81.0153 175.579 82.2653 174.299 83.8453 173.379C85.4453 172.459 87.2153 171.999 89.1553 171.999C91.4353 171.999 93.4253 172.549 95.1253 173.649C96.8253 174.749 98.0653 176.309 98.8453 178.329H95.5753C94.9953 177.109 94.1553 176.169 93.0553 175.509C91.9753 174.829 90.6753 174.489 89.1553 174.489C87.6953 174.489 86.3853 174.829 85.2253 175.509C84.0653 176.169 83.1553 177.129 82.4953 178.389C81.8353 179.629 81.5053 181.069 81.5053 182.709C81.5053 184.349 81.8353 185.789 82.4953 187.029C83.1553 188.269 84.0653 189.229 85.2253 189.909C86.3853 190.569 87.6953 190.899 89.1553 190.899C90.6753 190.899 91.9753 190.569 93.0553 189.909C94.1553 189.249 94.9953 188.309 95.5753 187.089H98.8453C98.0653 189.089 96.8253 190.639 95.1253 191.739C93.4253 192.819 91.4353 193.359 89.1553 193.359C87.2153 193.359 85.4453 192.909 83.8453 192.009C82.2653 191.089 81.0153 189.819 80.0953 188.199C79.1753 186.579 78.7153 184.749 78.7153 182.709ZM90.2053 248.409C90.9653 248.529 91.6553 248.839 92.2753 249.339C92.9153 249.839 93.4153 250.459 93.7753 251.199C94.1553 251.939 94.3453 252.729 94.3453 253.569C94.3453 254.629 94.0753 255.589 93.5353 256.449C92.9953 257.289 92.2053 257.959 91.1653 258.459C90.1453 258.939 88.9353 259.179 87.5353 259.179H79.7353V238.269H87.2353C88.6553 238.269 89.8653 238.509 90.8653 238.989C91.8653 239.449 92.6153 240.079 93.1153 240.879C93.6153 241.679 93.8653 242.579 93.8653 243.579C93.8653 244.819 93.5253 245.849 92.8453 246.669C92.1853 247.469 91.3053 248.049 90.2053 248.409ZM82.4653 247.359H87.0553C88.3153 247.359 89.2953 247.059 89.9953 246.459C90.7153 245.839 91.0753 244.989 91.0753 243.909C91.0753 242.829 90.7253 241.979 90.0253 241.359C89.3253 240.739 88.3153 240.429 86.9953 240.429H82.4653V247.359ZM87.2953 257.019C88.6353 257.019 89.6853 256.689 90.4453 256.029C91.2253 255.369 91.6153 254.459 91.6153 253.299C91.6153 252.139 91.2153 251.219 90.4153 250.539C89.6153 249.859 88.5453 249.519 87.2053 249.519H82.4653V257.019H87.2953ZM92.0953 320.529H82.9753L81.2953 325.179H78.4153L85.9753 304.389H89.1253L96.6553 325.179H93.7753L92.0953 320.529ZM91.3453 318.399L87.5353 307.749L83.7253 318.399H91.3453ZM86.3653 391.389C84.9853 391.389 83.7453 391.149 82.6453 390.669C81.5653 390.169 80.7153 389.489 80.0953 388.629C79.4753 387.749 79.1553 386.739 79.1353 385.599H82.0453C82.1453 386.599 82.5553 387.449 83.2753 388.149C83.9953 388.829 85.0253 389.169 86.3653 389.169C87.6453 389.169 88.6653 388.839 89.4253 388.179C90.1853 387.499 90.5653 386.639 90.5653 385.599C90.5653 384.799 90.3453 384.149 89.9053 383.649C89.4653 383.149 88.9153 382.769 88.2553 382.509C87.5953 382.249 86.7053 381.969 85.5853 381.669C84.2053 381.309 83.0953 380.949 82.2553 380.589C81.4353 380.229 80.7253 379.669 80.1253 378.909C79.5453 378.129 79.2553 377.089 79.2553 375.789C79.2553 374.649 79.5453 373.639 80.1253 372.759C80.7053 371.879 81.5153 371.199 82.5553 370.719C83.6153 370.239 84.8253 369.999 86.1853 369.999C88.1453 369.999 89.7453 370.489 90.9853 371.469C92.2453 372.449 92.9553 373.749 93.1153 375.369H90.1153C90.0153 374.509 89.5953 373.779 88.8553 373.179C88.1353 372.559 87.1553 372.249 85.9153 372.249C84.7753 372.249 83.8453 372.549 83.1253 373.149C82.4053 373.749 82.0453 374.599 82.0453 375.699C82.0453 376.459 82.2553 377.079 82.6753 377.559C83.1153 378.039 83.6453 378.409 84.2653 378.669C84.9053 378.909 85.7953 379.189 86.9353 379.509C88.3153 379.889 89.4253 380.269 90.2653 380.649C91.1053 381.009 91.8253 381.579 92.4253 382.359C93.0253 383.119 93.3253 384.159 93.3253 385.479C93.3253 386.499 93.0553 387.459 92.5153 388.359C91.9753 389.259 91.1753 389.989 90.1153 390.549C89.0553 391.109 87.8053 391.389 86.3653 391.389Z" fill="black"/>
<path d="M947.974 122.349V120.279L958.504 105.699H961.774V119.979H964.774V122.349H961.774V127.179H959.074V122.349H947.974ZM959.194 108.549L951.124 119.979H959.194V108.549ZM966.871 110.379C966.871 109.039 967.281 107.969 968.101 107.169C968.921 106.369 969.971 105.969 971.251 105.969C972.531 105.969 973.581 106.369 974.401 107.169C975.221 107.969 975.631 109.039 975.631 110.379C975.631 111.719 975.211 112.799 974.371 113.619C973.551 114.419 972.511 114.819 971.251 114.819C969.971 114.819 968.921 114.419 968.101 113.619C967.281 112.799 966.871 111.719 966.871 110.379ZM983.161 106.239L971.041 127.179H968.311L980.461 106.239H983.161ZM971.251 107.649C970.571 107.649 970.031 107.889 969.631 108.369C969.231 108.829 969.031 109.499 969.031 110.379C969.031 111.259 969.231 111.939 969.631 112.419C970.031 112.879 970.571 113.109 971.251 113.109C971.931 113.109 972.461 112.879 972.841 112.419C973.241 111.939 973.441 111.259 973.441 110.379C973.441 109.499 973.241 108.829 972.841 108.369C972.461 107.889 971.931 107.649 971.251 107.649ZM975.931 123.039C975.931 121.679 976.341 120.599 977.161 119.799C977.981 118.999 979.031 118.599 980.311 118.599C981.591 118.599 982.631 118.999 983.431 119.799C984.251 120.599 984.661 121.679 984.661 123.039C984.661 124.379 984.251 125.459 983.431 126.279C982.611 127.079 981.571 127.479 980.311 127.479C979.031 127.479 977.981 127.079 977.161 126.279C976.341 125.459 975.931 124.379 975.931 123.039ZM980.281 120.309C979.601 120.309 979.061 120.539 978.661 120.999C978.261 121.459 978.061 122.139 978.061 123.039C978.061 123.919 978.261 124.589 978.661 125.049C979.061 125.509 979.601 125.739 980.281 125.739C980.961 125.739 981.501 125.509 981.901 125.049C982.301 124.589 982.501 123.919 982.501 123.039C982.501 122.139 982.301 121.459 981.901 120.999C981.501 120.539 980.961 120.309 980.281 120.309ZM952.565 181.659C951.445 181.219 950.585 180.579 949.985 179.739C949.385 178.899 949.085 177.889 949.085 176.709C949.085 175.609 949.355 174.629 949.895 173.769C950.435 172.889 951.235 172.199 952.295 171.699C953.375 171.179 954.675 170.919 956.195 170.919C957.715 170.919 959.005 171.179 960.065 171.699C961.145 172.199 961.955 172.889 962.495 173.769C963.055 174.649 963.335 175.629 963.335 176.709C963.335 177.869 963.025 178.879 962.405 179.739C961.785 180.599 960.935 181.239 959.855 181.659C961.115 182.059 962.105 182.739 962.825 183.699C963.545 184.659 963.905 185.829 963.905 187.209C963.905 188.549 963.585 189.719 962.945 190.719C962.305 191.699 961.395 192.459 960.215 192.999C959.055 193.519 957.715 193.779 956.195 193.779C954.675 193.779 953.335 193.519 952.175 192.999C951.035 192.459 950.145 191.699 949.505 190.719C948.865 189.719 948.545 188.549 948.545 187.209C948.545 185.809 948.905 184.629 949.625 183.669C950.345 182.709 951.325 182.039 952.565 181.659ZM956.195 173.199C954.835 173.199 953.745 173.529 952.925 174.189C952.125 174.849 951.725 175.799 951.725 177.039C951.725 178.159 952.135 179.069 952.955 179.769C953.795 180.449 954.875 180.789 956.195 180.789C957.535 180.789 958.615 180.439 959.435 179.739C960.275 179.039 960.695 178.129 960.695 177.009C960.695 175.789 960.285 174.849 959.465 174.189C958.665 173.529 957.575 173.199 956.195 173.199ZM956.195 182.859C954.715 182.859 953.505 183.219 952.565 183.939C951.625 184.639 951.155 185.699 951.155 187.119C951.155 188.459 951.605 189.529 952.505 190.329C953.425 191.109 954.655 191.499 956.195 191.499C957.735 191.499 958.955 191.099 959.855 190.299C960.755 189.499 961.205 188.439 961.205 187.119C961.205 185.719 960.745 184.659 959.825 183.939C958.905 183.219 957.695 182.859 956.195 182.859ZM966.9 176.379C966.9 175.039 967.31 173.969 968.13 173.169C968.95 172.369 970 171.969 971.28 171.969C972.56 171.969 973.61 172.369 974.43 173.169C975.25 173.969 975.66 175.039 975.66 176.379C975.66 177.719 975.24 178.799 974.4 179.619C973.58 180.419 972.54 180.819 971.28 180.819C970 180.819 968.95 180.419 968.13 179.619C967.31 178.799 966.9 177.719 966.9 176.379ZM983.19 172.239L971.07 193.179H968.34L980.49 172.239H983.19ZM971.28 173.649C970.6 173.649 970.06 173.889 969.66 174.369C969.26 174.829 969.06 175.499 969.06 176.379C969.06 177.259 969.26 177.939 969.66 178.419C970.06 178.879 970.6 179.109 971.28 179.109C971.96 179.109 972.49 178.879 972.87 178.419C973.27 177.939 973.47 177.259 973.47 176.379C973.47 175.499 973.27 174.829 972.87 174.369C972.49 173.889 971.96 173.649 971.28 173.649ZM975.96 189.039C975.96 187.679 976.37 186.599 977.19 185.799C978.01 184.999 979.06 184.599 980.34 184.599C981.62 184.599 982.66 184.999 983.46 185.799C984.28 186.599 984.69 187.679 984.69 189.039C984.69 190.379 984.28 191.459 983.46 192.279C982.64 193.079 981.6 193.479 980.34 193.479C979.06 193.479 978.01 193.079 977.19 192.279C976.37 191.459 975.96 190.379 975.96 189.039ZM980.31 186.309C979.63 186.309 979.09 186.539 978.69 186.999C978.29 187.459 978.09 188.139 978.09 189.039C978.09 189.919 978.29 190.589 978.69 191.049C979.09 191.509 979.63 191.739 980.31 191.739C980.99 191.739 981.53 191.509 981.93 191.049C982.33 190.589 982.53 189.919 982.53 189.039C982.53 188.139 982.33 187.459 981.93 186.999C981.53 186.539 980.99 186.309 980.31 186.309ZM943.915 240.399V237.909H949.555V259.179H946.795V240.399H943.915ZM953.914 256.989C956.454 254.949 958.444 253.279 959.884 251.979C961.324 250.679 962.534 249.329 963.514 247.929C964.514 246.509 965.014 245.129 965.014 243.789C965.014 242.549 964.694 241.559 964.054 240.819C963.414 240.059 962.404 239.679 961.024 239.679C959.664 239.679 958.604 240.109 957.844 240.969C957.104 241.809 956.704 242.939 956.644 244.359H954.004C954.084 242.119 954.764 240.389 956.044 239.169C957.324 237.949 958.974 237.339 960.994 237.339C963.054 237.339 964.684 237.909 965.884 239.049C967.104 240.169 967.714 241.709 967.714 243.669C967.714 245.269 967.214 246.849 966.214 248.409C965.234 249.969 964.114 251.339 962.854 252.519C961.594 253.679 959.984 255.059 958.024 256.659H968.344V258.939H953.914V256.989ZM970.87 242.379C970.87 241.039 971.28 239.969 972.1 239.169C972.92 238.369 973.97 237.969 975.25 237.969C976.53 237.969 977.58 238.369 978.4 239.169C979.22 239.969 979.63 241.039 979.63 242.379C979.63 243.719 979.21 244.799 978.37 245.619C977.55 246.419 976.51 246.819 975.25 246.819C973.97 246.819 972.92 246.419 972.1 245.619C971.28 244.799 970.87 243.719 970.87 242.379ZM987.16 238.239L975.04 259.179H972.31L984.46 238.239H987.16ZM975.25 239.649C974.57 239.649 974.03 239.889 973.63 240.369C973.23 240.829 973.03 241.499 973.03 242.379C973.03 243.259 973.23 243.939 973.63 244.419C974.03 244.879 974.57 245.109 975.25 245.109C975.93 245.109 976.46 244.879 976.84 244.419C977.24 243.939 977.44 243.259 977.44 242.379C977.44 241.499 977.24 240.829 976.84 240.369C976.46 239.889 975.93 239.649 975.25 239.649ZM979.93 255.039C979.93 253.679 980.34 252.599 981.16 251.799C981.98 250.999 983.03 250.599 984.31 250.599C985.59 250.599 986.63 250.999 987.43 251.799C988.25 252.599 988.66 253.679 988.66 255.039C988.66 256.379 988.25 257.459 987.43 258.279C986.61 259.079 985.57 259.479 984.31 259.479C983.03 259.479 981.98 259.079 981.16 258.279C980.34 257.459 979.93 256.379 979.93 255.039ZM984.28 252.309C983.6 252.309 983.06 252.539 982.66 252.999C982.26 253.459 982.06 254.139 982.06 255.039C982.06 255.919 982.26 256.589 982.66 257.049C983.06 257.509 983.6 257.739 984.28 257.739C984.96 257.739 985.5 257.509 985.9 257.049C986.3 256.589 986.5 255.919 986.5 255.039C986.5 254.139 986.3 253.459 985.9 252.999C985.5 252.539 984.96 252.309 984.28 252.309ZM943.021 306.399V303.909H948.661V325.179H945.901V306.399H943.021ZM965.441 308.649C965.001 306.429 963.631 305.319 961.331 305.319C959.551 305.319 958.221 306.009 957.341 307.389C956.461 308.749 956.031 310.999 956.051 314.139C956.511 313.099 957.271 312.289 958.331 311.709C959.411 311.109 960.611 310.809 961.931 310.809C963.991 310.809 965.631 311.449 966.851 312.729C968.091 314.009 968.711 315.779 968.711 318.039C968.711 319.399 968.441 320.619 967.901 321.699C967.381 322.779 966.581 323.639 965.501 324.279C964.441 324.919 963.151 325.239 961.631 325.239C959.571 325.239 957.961 324.779 956.801 323.859C955.641 322.939 954.831 321.669 954.371 320.049C953.911 318.429 953.681 316.429 953.681 314.049C953.681 306.709 956.241 303.039 961.361 303.039C963.321 303.039 964.861 303.569 965.981 304.629C967.101 305.689 967.761 307.029 967.961 308.649H965.441ZM961.361 313.119C960.501 313.119 959.691 313.299 958.931 313.659C958.171 313.999 957.551 314.529 957.071 315.249C956.611 315.949 956.381 316.809 956.381 317.829C956.381 319.349 956.821 320.589 957.701 321.549C958.581 322.489 959.841 322.959 961.481 322.959C962.881 322.959 963.991 322.529 964.811 321.669C965.651 320.789 966.071 319.609 966.071 318.129C966.071 316.569 965.671 315.349 964.871 314.469C964.071 313.569 962.901 313.119 961.361 313.119ZM971.764 308.379C971.764 307.039 972.174 305.969 972.994 305.169C973.814 304.369 974.864 303.969 976.144 303.969C977.424 303.969 978.474 304.369 979.294 305.169C980.114 305.969 980.524 307.039 980.524 308.379C980.524 309.719 980.104 310.799 979.264 311.619C978.444 312.419 977.404 312.819 976.144 312.819C974.864 312.819 973.814 312.419 972.994 311.619C972.174 310.799 971.764 309.719 971.764 308.379ZM988.054 304.239L975.934 325.179H973.204L985.354 304.239H988.054ZM976.144 305.649C975.464 305.649 974.924 305.889 974.524 306.369C974.124 306.829 973.924 307.499 973.924 308.379C973.924 309.259 974.124 309.939 974.524 310.419C974.924 310.879 975.464 311.109 976.144 311.109C976.824 311.109 977.354 310.879 977.734 310.419C978.134 309.939 978.334 309.259 978.334 308.379C978.334 307.499 978.134 306.829 977.734 306.369C977.354 305.889 976.824 305.649 976.144 305.649ZM980.824 321.039C980.824 319.679 981.234 318.599 982.054 317.799C982.874 316.999 983.924 316.599 985.204 316.599C986.484 316.599 987.524 316.999 988.324 317.799C989.144 318.599 989.554 319.679 989.554 321.039C989.554 322.379 989.144 323.459 988.324 324.279C987.504 325.079 986.464 325.479 985.204 325.479C983.924 325.479 982.874 325.079 982.054 324.279C981.234 323.459 980.824 322.379 980.824 321.039ZM985.174 318.309C984.494 318.309 983.954 318.539 983.554 318.999C983.154 319.459 982.954 320.139 982.954 321.039C982.954 321.919 983.154 322.589 983.554 323.049C983.954 323.509 984.494 323.739 985.174 323.739C985.854 323.739 986.394 323.509 986.794 323.049C987.194 322.589 987.394 321.919 987.394 321.039C987.394 320.139 987.194 319.459 986.794 318.999C986.394 318.539 985.854 318.309 985.174 318.309ZM939.691 388.989C942.231 386.949 944.221 385.279 945.661 383.979C947.101 382.679 948.311 381.329 949.291 379.929C950.291 378.509 950.791 377.129 950.791 375.789C950.791 374.549 950.471 373.559 949.831 372.819C949.191 372.059 948.181 371.679 946.801 371.679C945.441 371.679 944.381 372.109 943.621 372.969C942.881 373.809 942.481 374.939 942.421 376.359H939.781C939.861 374.119 940.541 372.389 941.821 371.169C943.101 369.949 944.751 369.339 946.771 369.339C948.831 369.339 950.461 369.909 951.661 371.049C952.881 372.169 953.491 373.709 953.491 375.669C953.491 377.269 952.991 378.849 951.991 380.409C951.011 381.969 949.891 383.339 948.631 384.519C947.371 385.679 945.761 387.059 943.801 388.659H954.121V390.939H939.691V388.989ZM958.957 372.309C960.077 370.389 962.037 369.429 964.837 369.429C967.617 369.429 969.567 370.389 970.687 372.309C971.807 374.229 972.367 376.889 972.367 380.289C972.367 383.689 971.807 386.359 970.687 388.299C969.567 390.219 967.617 391.179 964.837 391.179C962.037 391.179 960.077 390.219 958.957 388.299C957.837 386.359 957.277 383.689 957.277 380.289C957.277 376.889 957.837 374.229 958.957 372.309ZM967.897 373.029C967.197 372.289 966.177 371.919 964.837 371.919C963.477 371.919 962.437 372.289 961.717 373.029C961.017 373.749 960.547 374.709 960.307 375.909C960.087 377.109 959.977 378.569 959.977 380.289C959.977 382.029 960.087 383.499 960.307 384.699C960.547 385.899 961.017 386.869 961.717 387.609C962.437 388.329 963.477 388.689 964.837 388.689C966.177 388.689 967.197 388.329 967.897 387.609C968.617 386.869 969.087 385.899 969.307 384.699C969.547 383.499 969.667 382.029 969.667 380.289C969.667 378.569 969.547 377.109 969.307 375.909C969.087 374.709 968.617 373.749 967.897 373.029ZM975.484 374.379C975.484 373.039 975.894 371.969 976.714 371.169C977.534 370.369 978.584 369.969 979.864 369.969C981.144 369.969 982.194 370.369 983.014 371.169C983.834 371.969 984.244 373.039 984.244 374.379C984.244 375.719 983.824 376.799 982.984 377.619C982.164 378.419 981.124 378.819 979.864 378.819C978.584 378.819 977.534 378.419 976.714 377.619C975.894 376.799 975.484 375.719 975.484 374.379ZM991.774 370.239L979.654 391.179H976.924L989.074 370.239H991.774ZM979.864 371.649C979.184 371.649 978.644 371.889 978.244 372.369C977.844 372.829 977.644 373.499 977.644 374.379C977.644 375.259 977.844 375.939 978.244 376.419C978.644 376.879 979.184 377.109 979.864 377.109C980.544 377.109 981.074 376.879 981.454 376.419C981.854 375.939 982.054 375.259 982.054 374.379C982.054 373.499 981.854 372.829 981.454 372.369C981.074 371.889 980.544 371.649 979.864 371.649ZM984.544 387.039C984.544 385.679 984.954 384.599 985.774 383.799C986.594 382.999 987.644 382.599 988.924 382.599C990.204 382.599 991.244 382.999 992.044 383.799C992.864 384.599 993.274 385.679 993.274 387.039C993.274 388.379 992.864 389.459 992.044 390.279C991.224 391.079 990.184 391.479 988.924 391.479C987.644 391.479 986.594 391.079 985.774 390.279C984.954 389.459 984.544 388.379 984.544 387.039ZM988.894 384.309C988.214 384.309 987.674 384.539 987.274 384.999C986.874 385.459 986.674 386.139 986.674 387.039C986.674 387.919 986.874 388.589 987.274 389.049C987.674 389.509 988.214 389.739 988.894 389.739C989.574 389.739 990.114 389.509 990.514 389.049C990.914 388.589 991.114 387.919 991.114 387.039C991.114 386.139 990.914 385.459 990.514 384.999C990.114 384.539 989.574 384.309 988.894 384.309Z" fill="black"/>
<path d="M854.726 29.2851V53.7151H849.826V37.8251L843.281 53.7151H839.571L832.991 37.8251V53.7151H828.091V29.2851H833.656L841.426 47.4501L849.196 29.2851H854.726ZM858.311 43.9501C858.311 41.9901 858.696 40.2517 859.466 38.7351C860.259 37.2184 861.321 36.0517 862.651 35.2351C864.004 34.4184 865.509 34.0101 867.166 34.0101C868.612 34.0101 869.872 34.3017 870.946 34.8851C872.042 35.4684 872.917 36.2034 873.571 37.0901V34.3251H878.506V53.7151H873.571V50.8801C872.941 51.7901 872.066 52.5484 870.946 53.1551C869.849 53.7384 868.577 54.0301 867.131 54.0301C865.497 54.0301 864.004 53.6101 862.651 52.7701C861.321 51.9301 860.259 50.7517 859.466 49.2351C858.696 47.6951 858.311 45.9334 858.311 43.9501ZM873.571 44.0201C873.571 42.8301 873.337 41.8151 872.871 40.9751C872.404 40.1117 871.774 39.4584 870.981 39.0151C870.187 38.5484 869.336 38.3151 868.426 38.3151C867.516 38.3151 866.676 38.5367 865.906 38.9801C865.136 39.4234 864.506 40.0767 864.016 40.9401C863.549 41.7801 863.316 42.7834 863.316 43.9501C863.316 45.1167 863.549 46.1434 864.016 47.0301C864.506 47.8934 865.136 48.5584 865.906 49.0251C866.699 49.4917 867.539 49.7251 868.426 49.7251C869.336 49.7251 870.187 49.5034 870.981 49.0601C871.774 48.5934 872.404 47.9401 872.871 47.1001C873.337 46.2367 873.571 45.2101 873.571 44.0201ZM888.996 38.3501V47.7301C888.996 48.3834 889.148 48.8617 889.451 49.1651C889.778 49.4451 890.315 49.5851 891.061 49.5851H893.336V53.7151H890.256C886.126 53.7151 884.061 51.7084 884.061 47.6951V38.3501H881.751V34.3251H884.061V29.5301H888.996V34.3251H893.336V38.3501H888.996ZM895.601 44.0201C895.601 42.0134 896.009 40.2634 896.826 38.7701C897.642 37.2534 898.774 36.0867 900.221 35.2701C901.667 34.4301 903.324 34.0101 905.191 34.0101C907.594 34.0101 909.577 34.6167 911.141 35.8301C912.727 37.0201 913.789 38.7001 914.326 40.8701H909.041C908.761 40.0301 908.282 39.3767 907.606 38.9101C906.952 38.4201 906.136 38.1751 905.156 38.1751C903.756 38.1751 902.647 38.6884 901.831 39.7151C901.014 40.7184 900.606 42.1534 900.606 44.0201C900.606 45.8634 901.014 47.2984 901.831 48.3251C902.647 49.3284 903.756 49.8301 905.156 49.8301C907.139 49.8301 908.434 48.9434 909.041 47.1701H914.326C913.789 49.2701 912.727 50.9384 911.141 52.1751C909.554 53.4117 907.571 54.0301 905.191 54.0301C903.324 54.0301 901.667 53.6217 900.221 52.8051C898.774 51.9651 897.642 50.7984 896.826 49.3051C896.009 47.7884 895.601 46.0267 895.601 44.0201ZM928.835 34.0451C930.305 34.0451 931.612 34.3717 932.755 35.0251C933.899 35.6551 934.785 36.6001 935.415 37.8601C936.069 39.0967 936.395 40.5901 936.395 42.3401V53.7151H931.495V43.0051C931.495 41.4651 931.11 40.2867 930.34 39.4701C929.57 38.6301 928.52 38.2101 927.19 38.2101C925.837 38.2101 924.764 38.6301 923.97 39.4701C923.2 40.2867 922.815 41.4651 922.815 43.0051V53.7151H917.915V27.8151H922.815V36.7401C923.445 35.9001 924.285 35.2467 925.335 34.7801C926.385 34.2901 927.552 34.0451 928.835 34.0451ZM949.16 43.9501C949.16 41.9901 949.545 40.2517 950.315 38.7351C951.109 37.2184 952.17 36.0517 953.5 35.2351C954.854 34.4184 956.359 34.0101 958.015 34.0101C959.462 34.0101 960.722 34.3017 961.795 34.8851C962.892 35.4684 963.767 36.2034 964.42 37.0901V34.3251H969.355V53.7151H964.42V50.8801C963.79 51.7901 962.915 52.5484 961.795 53.1551C960.699 53.7384 959.427 54.0301 957.98 54.0301C956.347 54.0301 954.854 53.6101 953.5 52.7701C952.17 51.9301 951.109 50.7517 950.315 49.2351C949.545 47.6951 949.16 45.9334 949.16 43.9501ZM964.42 44.0201C964.42 42.8301 964.187 41.8151 963.72 40.9751C963.254 40.1117 962.624 39.4584 961.83 39.0151C961.037 38.5484 960.185 38.3151 959.275 38.3151C958.365 38.3151 957.525 38.5367 956.755 38.9801C955.985 39.4234 955.355 40.0767 954.865 40.9401C954.399 41.7801 954.165 42.7834 954.165 43.9501C954.165 45.1167 954.399 46.1434 954.865 47.0301C955.355 47.8934 955.985 48.5584 956.755 49.0251C957.549 49.4917 958.389 49.7251 959.275 49.7251C960.185 49.7251 961.037 49.5034 961.83 49.0601C962.624 48.5934 963.254 47.9401 963.72 47.1001C964.187 46.2367 964.42 45.2101 964.42 44.0201ZM984.886 34.0451C987.196 34.0451 989.063 34.7801 990.486 36.2501C991.909 37.6967 992.621 39.7267 992.621 42.3401V53.7151H987.721V43.0051C987.721 41.4651 987.336 40.2867 986.566 39.4701C985.796 38.6301 984.746 38.2101 983.416 38.2101C982.063 38.2101 980.989 38.6301 980.196 39.4701C979.426 40.2867 979.041 41.4651 979.041 43.0051V53.7151H974.141V34.3251H979.041V36.7401C979.694 35.9001 980.523 35.2467 981.526 34.7801C982.553 34.2901 983.673 34.0451 984.886 34.0451ZM996.021 43.9501C996.021 41.9901 996.406 40.2517 997.176 38.7351C997.969 37.2184 999.042 36.0517 1000.4 35.2351C1001.75 34.4184 1003.25 34.0101 1004.91 34.0101C1006.17 34.0101 1007.37 34.2901 1008.52 34.8501C1009.66 35.3867 1010.57 36.1101 1011.25 37.0201V27.8151H1016.22V53.7151H1011.25V50.8451C1010.64 51.8017 1009.79 52.5717 1008.69 53.1551C1007.59 53.7384 1006.32 54.0301 1004.88 54.0301C1003.24 54.0301 1001.75 53.6101 1000.4 52.7701C999.042 51.9301 997.969 50.7517 997.176 49.2351C996.406 47.6951 996.021 45.9334 996.021 43.9501ZM1011.28 44.0201C1011.28 42.8301 1011.05 41.8151 1010.58 40.9751C1010.11 40.1117 1009.48 39.4584 1008.69 39.0151C1007.9 38.5484 1007.05 38.3151 1006.14 38.3151C1005.23 38.3151 1004.39 38.5367 1003.62 38.9801C1002.85 39.4234 1002.22 40.0767 1001.73 40.9401C1001.26 41.7801 1001.03 42.7834 1001.03 43.9501C1001.03 45.1167 1001.26 46.1434 1001.73 47.0301C1002.22 47.8934 1002.85 48.5584 1003.62 49.0251C1004.41 49.4917 1005.25 49.7251 1006.14 49.7251C1007.05 49.7251 1007.9 49.5034 1008.69 49.0601C1009.48 48.5934 1010.11 47.9401 1010.58 47.1001C1011.05 46.2367 1011.28 45.2101 1011.28 44.0201ZM1029.11 44.0201C1029.11 42.0134 1029.51 40.2634 1030.33 38.7701C1031.15 37.2534 1032.28 36.0867 1033.73 35.2701C1035.17 34.4301 1036.83 34.0101 1038.7 34.0101C1041.1 34.0101 1043.08 34.6167 1044.65 35.8301C1046.23 37.0201 1047.29 38.7001 1047.83 40.8701H1042.55C1042.27 40.0301 1041.79 39.3767 1041.11 38.9101C1040.46 38.4201 1039.64 38.1751 1038.66 38.1751C1037.26 38.1751 1036.15 38.6884 1035.34 39.7151C1034.52 40.7184 1034.11 42.1534 1034.11 44.0201C1034.11 45.8634 1034.52 47.2984 1035.34 48.3251C1036.15 49.3284 1037.26 49.8301 1038.66 49.8301C1040.64 49.8301 1041.94 48.9434 1042.55 47.1701H1047.83C1047.29 49.2701 1046.23 50.9384 1044.65 52.1751C1043.06 53.4117 1041.08 54.0301 1038.7 54.0301C1036.83 54.0301 1035.17 53.6217 1033.73 52.8051C1032.28 51.9651 1031.15 50.7984 1030.33 49.3051C1029.51 47.7884 1029.11 46.0267 1029.11 44.0201ZM1062.34 34.0451C1063.81 34.0451 1065.12 34.3717 1066.26 35.0251C1067.4 35.6551 1068.29 36.6001 1068.92 37.8601C1069.57 39.0967 1069.9 40.5901 1069.9 42.3401V53.7151H1065V43.0051C1065 41.4651 1064.62 40.2867 1063.85 39.4701C1063.08 38.6301 1062.03 38.2101 1060.7 38.2101C1059.34 38.2101 1058.27 38.6301 1057.48 39.4701C1056.71 40.2867 1056.32 41.4651 1056.32 43.0051V53.7151H1051.42V27.8151H1056.32V36.7401C1056.95 35.9001 1057.79 35.2467 1058.84 34.7801C1059.89 34.2901 1061.06 34.0451 1062.34 34.0451ZM1073.3 43.9501C1073.3 41.9901 1073.69 40.2517 1074.46 38.7351C1075.25 37.2184 1076.31 36.0517 1077.64 35.2351C1078.99 34.4184 1080.5 34.0101 1082.16 34.0101C1083.6 34.0101 1084.86 34.3017 1085.94 34.8851C1087.03 35.4684 1087.91 36.2034 1088.56 37.0901V34.3251H1093.5V53.7151H1088.56V50.8801C1087.93 51.7901 1087.06 52.5484 1085.94 53.1551C1084.84 53.7384 1083.57 54.0301 1082.12 54.0301C1080.49 54.0301 1078.99 53.6101 1077.64 52.7701C1076.31 51.9301 1075.25 50.7517 1074.46 49.2351C1073.69 47.6951 1073.3 45.9334 1073.3 43.9501ZM1088.56 44.0201C1088.56 42.8301 1088.33 41.8151 1087.86 40.9751C1087.39 40.1117 1086.76 39.4584 1085.97 39.0151C1085.18 38.5484 1084.33 38.3151 1083.42 38.3151C1082.51 38.3151 1081.67 38.5367 1080.9 38.9801C1080.13 39.4234 1079.5 40.0767 1079.01 40.9401C1078.54 41.7801 1078.31 42.7834 1078.31 43.9501C1078.31 45.1167 1078.54 46.1434 1079.01 47.0301C1079.5 47.8934 1080.13 48.5584 1080.9 49.0251C1081.69 49.4917 1082.53 49.7251 1083.42 49.7251C1084.33 49.7251 1085.18 49.5034 1085.97 49.0601C1086.76 48.5934 1087.39 47.9401 1087.86 47.1001C1088.33 46.2367 1088.56 45.2101 1088.56 44.0201ZM1103.99 38.3501V47.7301C1103.99 48.3834 1104.14 48.8617 1104.44 49.1651C1104.77 49.4451 1105.31 49.5851 1106.05 49.5851H1108.33V53.7151H1105.25C1101.12 53.7151 1099.05 51.7084 1099.05 47.6951V38.3501H1096.74V34.3251H1099.05V29.5301H1103.99V34.3251H1108.33V38.3501H1103.99Z" fill="black"/>
</svg>
