<svg xmlns="http://www.w3.org/2000/svg" xmlns:xlink="http://www.w3.org/1999/xlink" width="194" zoomAndPan="magnify" viewBox="0 0 145.5 142.499996" height="190" preserveAspectRatio="xMidYMid meet" version="1.0"><defs><clipPath id="2ce57d42fc"><path d="M 1.53125 0 L 143 0 L 143 141.945312 L 1.53125 141.945312 Z M 1.53125 0 " clip-rule="nonzero"/></clipPath><clipPath id="75505c4651"><path d="M 97 0 L 144.996094 0 L 144.996094 46 L 97 46 Z M 97 0 " clip-rule="nonzero"/></clipPath></defs><g clip-path="url(#2ce57d42fc)"><path fill="#fcd24f" d="M 142.96875 71.027344 C 142.96875 71.082031 142.96875 71.136719 142.96875 71.246094 C 142.96875 110.304688 111.304688 141.945312 72.230469 141.945312 C 33.152344 141.945312 1.546875 110.246094 1.546875 71.246094 C 1.546875 71.082031 1.546875 70.914062 1.546875 70.75 C 1.546875 70.585938 1.546875 70.417969 1.546875 70.253906 C 2.101562 31.695312 33.539062 0.550781 72.285156 0.550781 C 111.140625 0.550781 142.691406 31.917969 142.96875 70.75 C 142.96875 70.585938 142.96875 70.417969 142.96875 70.253906 Z M 142.96875 71.027344 " fill-opacity="1" fill-rule="nonzero"/></g><path fill="#ea8439" d="M 106.269531 37.226562 C 97.136719 28.097656 85.070312 23.121094 72.230469 23.121094 C 59.386719 23.121094 47.320312 28.097656 38.242188 37.226562 C 29.109375 46.300781 24.128906 58.359375 24.128906 71.191406 C 24.128906 84.027344 29.109375 96.140625 38.242188 105.214844 C 47.320312 114.285156 59.386719 119.320312 72.230469 119.320312 C 85.070312 119.320312 97.191406 114.285156 106.269531 105.214844 C 115.347656 96.140625 120.382812 84.082031 120.382812 71.246094 C 120.382812 58.414062 115.347656 46.300781 106.269531 37.226562 Z M 95.753906 87.675781 L 48.761719 87.675781 L 48.761719 54.761719 L 61.046875 68.039062 L 72.285156 54.761719 L 83.519531 68.039062 L 95.808594 54.761719 L 95.808594 87.675781 Z M 95.753906 87.675781 " fill-opacity="1" fill-rule="nonzero"/><path fill="#ffffff" d="M 129.183594 27.214844 L 121.101562 39.496094 L 115.789062 28.210938 L 102.894531 19.96875 L 114.460938 13.382812 L 121.269531 2.597656 L 128.023438 13.992188 L 139.367188 20.796875 Z M 129.183594 27.214844 L 121.101562 39.496094 L 115.789062 28.210938 L 102.894531 19.96875 L 114.460938 13.382812 L 121.269531 2.597656 L 128.023438 13.992188 L 139.367188 20.796875 Z M 129.183594 27.214844 " fill-opacity="1" fill-rule="nonzero"/><g clip-path="url(#75505c4651)"><path fill="#1f1347" d="M 143.300781 18.140625 L 129.847656 11.0625 L 123.925781 -1.164062 C 123.371094 -2.328125 122.265625 -3.046875 121.046875 -3.046875 C 119.773438 -3.046875 118.667969 -2.269531 118.167969 -1.164062 L 112.414062 11.0625 L 101.066406 16.925781 C 97.910156 18.640625 97.082031 19.082031 97.082031 21.019531 C 97.082031 22.234375 97.691406 23.285156 98.742188 23.894531 L 112.191406 30.976562 L 118.113281 43.199219 C 118.667969 44.363281 119.773438 45.082031 120.992188 45.082031 C 122.210938 45.082031 123.261719 44.363281 123.871094 43.3125 L 130.179688 31.03125 L 143.300781 23.949219 C 144.351562 23.398438 145.015625 22.289062 145.015625 21.074219 C 145.015625 19.746094 144.351562 18.695312 143.300781 18.140625 Z M 126.363281 25.609375 C 125.808594 25.886719 125.308594 26.382812 124.976562 26.992188 L 121.160156 34.460938 L 117.617188 27.046875 C 117.339844 26.496094 116.839844 25.941406 116.234375 25.664062 L 107.265625 20.964844 C 111.363281 18.859375 116.398438 16.261719 116.507812 16.261719 C 117.117188 15.875 117.617188 15.429688 117.894531 14.765625 L 121.269531 7.632812 L 124.703125 14.710938 C 124.976562 15.265625 125.476562 15.761719 126.085938 16.09375 L 135.105469 20.851562 Z M 126.363281 25.609375 " fill-opacity="1" fill-rule="nonzero"/></g></svg>