<?xml version="1.0" encoding="UTF-8"?>
<svg version="1.1" xmlns="http://www.w3.org/2000/svg" width="2334" height="2081">
<path d="M0 0 C1.76365594 -0.00187105 3.52731146 -0.00417292 5.29096633 -0.00686532 C10.11091206 -0.01295334 14.93084036 -0.01285328 19.75078905 -0.01167095 C24.95954361 -0.01146618 30.16829269 -0.01699292 35.37704468 -0.02172852 C45.57198412 -0.03001908 55.76691779 -0.03278263 65.96186032 -0.03334089 C74.2523333 -0.0338168 82.54280437 -0.03587524 90.83327675 -0.03904152 C114.36072582 -0.04784362 137.88817034 -0.05246157 161.41562106 -0.05171105 C162.68280403 -0.05167109 163.949987 -0.05163113 165.25556946 -0.05158997 C166.52430728 -0.05154909 167.79304511 -0.0515082 169.10022954 -0.05146609 C189.65801056 -0.0510597 210.21577326 -0.0606284 230.77354898 -0.07472833 C251.90411416 -0.08910628 273.0346704 -0.09599774 294.16524059 -0.09513456 C306.01960926 -0.09480309 317.87395872 -0.09752833 329.72832298 -0.10831261 C339.82159431 -0.11743626 349.91483771 -0.11957755 360.00811138 -0.11280318 C365.15247228 -0.10954744 370.29677966 -0.109447 375.44113541 -0.11815643 C380.16077404 -0.12606427 384.88031709 -0.12454664 389.59995351 -0.1158723 C391.29706011 -0.1143467 392.99417399 -0.11611753 394.69127198 -0.12173238 C429.17710652 -0.2281691 459.31087187 8.70173275 484.42280579 33.13371277 C504.32984961 53.62901041 514.61337102 80.58753653 514.54585361 108.89597225 C514.54700746 110.08253399 514.5481613 111.26909574 514.54935011 112.49161389 C514.55154171 115.78681143 514.54924844 119.08195073 514.54507198 122.3771427 C514.54163383 125.96133923 514.54400933 129.54553266 514.54564947 133.12972981 C514.54772263 139.41188628 514.54608041 145.69403329 514.54201126 151.97618866 C514.53597738 161.31753076 514.53567535 170.65886688 514.53655325 180.00021057 C514.53786738 195.71366796 514.53452487 211.42712115 514.52853584 227.14057732 C514.52262045 242.70068317 514.51877023 258.26078727 514.51768303 273.82089424 C514.51761429 274.78808312 514.51754555 275.75527199 514.51747473 276.75176962 C514.5171364 281.66355826 514.51683501 286.5753469 514.51654785 291.48713554 C514.51444699 326.28461234 514.50770837 361.08208686 514.49824524 395.87956238 C514.48906208 429.6865284 514.48197784 463.4934938 514.47773743 497.30046082 C514.4776059 498.34239116 514.47747437 499.3843215 514.47733886 500.45782549 C514.47602035 510.9212413 514.47474454 521.3846571 514.4735 531.84807292 C514.47096374 553.16358754 514.46814248 574.47910213 514.46514893 595.7946167 C514.46501164 596.77468694 514.46487435 597.75475718 514.4647329 598.76452651 C514.45553098 664.22092288 514.43968563 729.67731798 514.42280579 795.13371277 C515.33679734 795.13219389 516.2507889 795.13067501 517.19247717 795.1291101 C571.39629525 795.03954403 625.60010546 794.97093936 679.80398276 794.92945145 C686.31632819 794.92444879 692.82867347 794.91927148 699.34101868 794.91398621 C700.63747683 794.91293696 701.93393497 794.91188772 703.26967973 794.91080669 C724.24533008 794.89341459 745.22093645 794.86188346 766.19656073 794.82510158 C787.72902637 794.78765894 809.26146902 794.76546988 830.79396588 794.75735879 C844.07427899 794.75187793 857.35446779 794.73458426 870.63474263 794.7020469 C879.74888933 794.680858 888.86297202 794.67452263 897.97714155 794.67970726 C903.23084908 794.68226221 908.48433979 794.67842214 913.7380085 794.65689087 C918.55813059 794.63728176 923.37789211 794.63653499 928.19803155 794.65011719 C929.93184264 794.65179335 931.66567717 794.64684157 933.39944284 794.63418004 C949.67193937 794.52235833 966.29784353 796.38499731 979.73530579 806.44621277 C986.0787781 812.78968508 989.39326812 819.84821782 989.73530579 828.88371277 C989.02928105 854.92818065 967.67514836 874.04212789 950.5388813 891.14906502 C949.35135417 892.33824518 948.16404457 893.52764259 946.97693092 894.71723551 C943.72441246 897.97528656 940.4688183 901.23024866 937.21269369 904.48469515 C933.66688878 908.02976595 930.12396921 911.57771845 926.58067024 915.12529361 C919.55736282 922.15616461 912.53137982 929.18435625 905.50456812 936.21172479 C897.08633052 944.63087761 888.6709731 953.05290713 880.25565839 961.47498134 C860.40421915 981.34208342 840.54798992 1001.2043955 820.69104873 1021.06599803 C810.58721482 1031.1722171 800.48404039 1041.27909532 790.3809881 1051.38609575 C757.96399208 1083.81575262 725.54605833 1116.24447174 693.1244284 1148.66949592 C691.57584591 1150.21824064 690.02726509 1151.76698703 688.47868477 1153.31573392 C685.37307276 1156.42167973 682.26745909 1159.52762388 679.16184533 1162.63356793 C675.52605989 1166.26974026 671.89027581 1169.90591395 668.2544942 1173.54209012 C667.21391145 1174.58278528 666.17332821 1175.62347995 665.13274446 1176.66417412 C631.70071927 1210.09975001 598.274467 1243.54108807 564.85231913 1276.98653718 C540.82747008 1301.0281291 516.80198763 1325.06908559 492.7710247 1349.10456657 C492.27679158 1349.59889319 491.78255845 1350.0932198 491.27334856 1350.60252601 C480.42363312 1361.45426051 469.57348618 1372.30556349 458.7229379 1383.15646525 C454.84046833 1387.03907099 450.95803517 1390.92171314 447.07562156 1394.80437484 C446.10979779 1395.77026018 445.1439724 1396.73614389 444.17814538 1397.70202597 C428.79390968 1413.08718115 413.4142018 1428.47685293 398.03679526 1443.86883358 C382.11895907 1459.80169576 366.19570528 1475.72912659 350.26620664 1491.65032925 C341.08327919 1500.82879586 331.90454691 1510.01141164 322.73176082 1519.20001357 C316.60524582 1525.33626501 310.47330278 1531.46705611 304.33690935 1537.59342881 C300.84018831 1541.0847484 297.34587716 1544.57838943 293.85815062 1548.07869627 C290.68240963 1551.26579651 287.49978551 1554.44585339 284.31163809 1557.62054171 C283.16944568 1558.76030772 282.02973498 1559.90256787 280.89289934 1561.04767694 C258.43223376 1583.66095976 231.0759012 1596.10999123 198.98384094 1596.51408386 C166.04870086 1596.46526476 139.83003555 1587.75034189 116.12132168 1564.04353237 C114.52846451 1562.44005886 112.94051598 1560.83181669 111.35249329 1559.22355652 C110.22061779 1558.08538969 109.08821158 1556.94775042 107.95530701 1555.81060791 C104.99829164 1552.84041053 102.04692407 1549.86467223 99.09724426 1546.88719177 C94.37252143 1542.11903905 89.64087913 1537.3577782 84.90590286 1532.59980965 C83.26842731 1530.95224281 81.63448026 1529.30123893 80.00090027 1527.64981079 C78.98263932 1526.62471214 77.96426338 1525.5997277 76.945755 1524.57487488 C76.06990753 1523.69077438 75.19406006 1522.80667389 74.29167175 1521.89578247 C72.15965648 1519.8431335 70.02055971 1517.90971357 67.77718544 1515.98767185 C63.29198232 1512.07424073 59.08154117 1507.92600549 54.88386536 1503.70829773 C54.06188046 1502.88646169 53.23989556 1502.06462565 52.39300203 1501.21788549 C50.13298955 1498.95730233 47.87522323 1496.6945043 45.61841226 1494.43072581 C43.17577823 1491.98167688 40.73020189 1489.5355691 38.28497314 1487.08911133 C34.05411009 1482.85537046 29.82502491 1478.61986051 25.59710693 1474.38317871 C19.47615049 1468.24962858 13.35192195 1462.11935377 7.22681266 1455.98995107 C-2.72312531 1446.03295579 -12.67119302 1436.07409433 -22.61772156 1426.11369324 C-23.21221263 1425.51837435 -23.8067037 1424.92305547 -24.41920966 1424.30969661 C-29.24231267 1419.47984948 -34.06532488 1414.64991169 -38.88833332 1409.81997013 C-43.10440205 1405.59784846 -47.32050705 1401.37576301 -51.53666687 1397.1537323 C-52.13042797 1396.55914308 -52.72418907 1395.96455385 -53.33594292 1395.35194677 C-63.24691971 1385.42726977 -73.15987106 1375.50456725 -83.07422495 1365.58326387 C-89.18173236 1359.47128434 -95.28745912 1353.35753633 -101.39087403 1347.24146998 C-105.57406955 1343.04982897 -109.75904864 1338.85997433 -113.94541681 1334.67150199 C-116.35782377 1332.25775441 -118.76940319 1329.84319503 -121.17875862 1327.42640114 C-123.79627337 1324.80165001 -126.4168814 1322.18002547 -129.03825378 1319.55912781 C-130.16823516 1318.42375399 -130.16823516 1318.42375399 -131.32104445 1317.26544333 C-134.65221939 1313.94070605 -138.01300966 1310.7085314 -141.57719421 1307.63371277 C-145.95842856 1303.85402606 -150.03580139 1299.80810295 -154.11613464 1295.70829773 C-154.93811954 1294.88646169 -155.76010444 1294.06462565 -156.60699797 1293.21788549 C-158.86701045 1290.95730233 -161.12477677 1288.6945043 -163.38158774 1286.43072581 C-165.82422177 1283.98167688 -168.26979811 1281.5355691 -170.71502686 1279.08911133 C-174.94588991 1274.85537046 -179.17497509 1270.61986051 -183.40289307 1266.38317871 C-189.52384951 1260.24962858 -195.64807805 1254.11935377 -201.77318734 1247.98995107 C-211.72312531 1238.03295579 -221.67119302 1228.07409433 -231.61772156 1218.11369324 C-232.21221263 1217.51837435 -232.8067037 1216.92305547 -233.41920966 1216.30969661 C-238.24231267 1211.47984948 -243.06532488 1206.64991169 -247.88833332 1201.81997013 C-252.10440205 1197.59784846 -256.32050705 1193.37576301 -260.53666687 1189.1537323 C-261.13042797 1188.55914308 -261.72418907 1187.96455385 -262.33594292 1187.35194677 C-272.24691971 1177.42726977 -282.15987106 1167.50456725 -292.07422495 1157.58326387 C-298.18173236 1151.47128434 -304.28745912 1145.35753633 -310.39087403 1139.24146998 C-314.57406955 1135.04982897 -318.75904864 1130.85997433 -322.94541681 1126.67150199 C-325.35782377 1124.25775441 -327.76940319 1121.84319503 -330.17875862 1119.42640114 C-332.79627337 1116.80165001 -335.4168814 1114.18002547 -338.03825378 1111.55912781 C-339.16823516 1110.42375399 -339.16823516 1110.42375399 -340.32104445 1109.26544333 C-343.65221939 1105.94070605 -347.01300966 1102.7085314 -350.57719421 1099.63371277 C-354.95842856 1095.85402606 -359.03580139 1091.80810295 -363.11613464 1087.70829773 C-363.93811954 1086.88646169 -364.76010444 1086.06462565 -365.60699797 1085.21788549 C-367.86701045 1082.95730233 -370.12477677 1080.6945043 -372.38158774 1078.43072581 C-374.82422177 1075.98167688 -377.26979811 1073.5355691 -379.71502686 1071.08911133 C-383.94588991 1066.85537046 -388.17497509 1062.61986051 -392.40289307 1058.38317871 C-398.52384951 1052.24962858 -404.64807805 1046.11935377 -410.77318734 1039.98995107 C-420.72312531 1030.03295579 -430.67119302 1020.07409433 -440.61772156 1010.11369324 C-441.21221263 1009.51837435 -441.8067037 1008.92305547 -442.41920966 1008.30969661 C-447.24231267 1003.47984948 -452.06532488 998.64991169 -456.88833332 993.81997013 C-461.10440205 989.59784846 -465.32050705 985.37576301 -469.53666687 981.1537323 C-470.42730852 980.26184846 -470.42730852 980.26184846 -471.33594292 979.35194677 C-481.24691971 969.42726977 -491.15987106 959.50456725 -501.07422495 949.58326387 C-507.18173236 943.47128434 -513.28745912 937.35753633 -519.39087403 931.24146998 C-523.57406955 927.04982897 -527.75904864 922.85997433 -531.94541681 918.67150199 C-534.35782377 916.25775441 -536.76940319 913.84319503 -539.17875862 911.42640114 C-541.79627337 908.80165001 -544.4168814 906.18002547 -547.03825378 903.55912781 C-547.7915747 902.80221193 -548.54489562 902.04529605 -549.32104445 901.26544333 C-553.38881874 897.20553022 -557.54946619 893.31825487 -561.9092145 889.57274771 C-576.98945647 876.5624006 -595.71993537 858.54807328 -599.57719421 838.13371277 C-600.19167212 829.48065504 -600.46978872 821.61302642 -595.57719421 814.13371277 C-595.16082703 813.46082214 -594.74445984 812.78793152 -594.31547546 812.09465027 C-590.74393547 807.23885574 -586.27384016 804.54078788 -581.01469421 801.82121277 C-580.39691101 801.49564392 -579.77912781 801.17007507 -579.1426239 800.8346405 C-566.83699779 794.89042357 -553.75762248 794.70010827 -540.41731262 794.77294922 C-538.61506511 794.77163853 -536.81281815 794.76900727 -535.01057422 794.76518172 C-530.09384759 794.75851659 -525.17731936 794.7704143 -520.26061797 794.7855159 C-514.94520466 794.79852973 -509.6298016 794.79408304 -504.31437683 794.79180908 C-495.11687212 794.79023972 -485.9194315 794.79961365 -476.7219429 794.8165226 C-463.42409826 794.84095379 -450.12628445 794.84872208 -436.82841979 794.85248657 C-415.25100804 794.8590446 -393.67363042 794.87898814 -372.09623718 794.90739441 C-351.14181183 794.93495178 -330.18739576 794.95617715 -309.23295593 794.96891785 C-307.293939 794.9701001 -307.293939 794.9701001 -305.31575002 794.97130624 C-298.83045203 794.97522149 -292.34515398 794.97901258 -285.85985589 794.98274195 C-232.09894509 795.01381765 -178.33807132 795.06663576 -124.57719421 795.13371277 C-124.57766216 794.53230565 -124.5781301 793.93089854 -124.57861222 793.31126697 C-124.62946416 727.8183211 -124.67657864 662.32537297 -124.70422363 596.83241272 C-124.7046378 595.85372042 -124.70505198 594.87502812 -124.7054787 593.86667847 C-124.71445794 572.59579542 -124.72276841 551.32491216 -124.7303902 530.05402858 C-124.73413213 519.62241936 -124.7380218 509.19081019 -124.74198914 498.75920105 C-124.74238141 497.7211442 -124.74277369 496.68308735 -124.74317785 495.61357423 C-124.75595626 461.9821228 -124.77848598 428.35068651 -124.80608588 394.71924425 C-124.8344026 360.15144941 -124.85285494 325.58366296 -124.85893918 291.01585672 C-124.85980362 286.13063109 -124.86078053 281.24540549 -124.86182594 276.3601799 C-124.86202821 275.39872078 -124.86223048 274.43726166 -124.86243888 273.44666742 C-124.86598062 257.98522549 -124.87988561 242.52380952 -124.89769032 227.06237817 C-124.91537875 211.50910108 -124.92209147 195.95584966 -124.91769835 180.40256287 C-124.91542092 171.16812879 -124.92146126 161.93378881 -124.93958684 152.69937177 C-124.95088259 146.52098832 -124.95115296 140.3426661 -124.94268965 134.16427833 C-124.93818474 130.65017606 -124.93825331 127.13625104 -124.95184376 123.6221682 C-125.00834713 105.9076175 -125.03773524 88.18688261 -118.45219421 71.44621277 C-118.00432556 70.27542175 -118.00432556 70.27542175 -117.54740906 69.08097839 C-112.6288094 56.73290313 -105.45238588 46.00367198 -96.57719421 36.13371277 C-95.89270203 35.36672058 -95.20820984 34.59972839 -94.50297546 33.80949402 C-69.28683327 7.101824 -35.32413029 -0.03574127 0 0 Z " fill="#FFFFFF" transform="translate(973.5771942138672,-0.1337127685546875)"/>
<path d="M0 0 C0.94504719 -0.00453111 1.89009438 -0.00906223 2.86377937 -0.01373065 C6.01477153 -0.0263405 9.16559009 -0.02475647 12.31660461 -0.02310181 C14.58237936 -0.02908923 16.84815208 -0.03589527 19.11392212 -0.04345703 C25.25876433 -0.06110366 31.4035508 -0.06581189 37.5484159 -0.0670886 C41.39123915 -0.06851166 45.23404831 -0.07278424 49.07686806 -0.07808304 C61.80206822 -0.09562588 74.5272221 -0.10492383 87.25243142 -0.10342209 C87.93747576 -0.10334218 88.6225201 -0.10326227 89.32832336 -0.10317993 C90.35715623 -0.10305729 90.35715623 -0.10305729 91.4067736 -0.10293217 C102.51349999 -0.10211989 113.62009057 -0.12124573 124.7267777 -0.14945666 C136.15266623 -0.17824748 147.57846116 -0.19162802 159.00439197 -0.19026911 C165.41045739 -0.18976024 171.81636909 -0.1954021 178.22240257 -0.21662521 C184.25124384 -0.23605372 190.2797855 -0.2361003 196.30863762 -0.22159195 C198.51400441 -0.2195084 200.71939019 -0.22417744 202.92472458 -0.23631287 C221.17949978 -0.33021117 236.56361872 1.68815388 250.66548157 14.52914429 C260.47163538 24.84531083 266.2589823 38.90972982 266.31782532 527.26742554 C824.34782532 527.26742554 1382.37782532 527.26742554 1957.31782532 527.26742554 C1957.31782532 369.52742554 1957.31782532 211.78742554 1957.31782532 49.26742554 C1961.87839581 31.02514358 1968.94526044 18.04511409 1984.91157532 7.66195679 C1994.25089969 2.2493938 2003.18475169 -0.03855341 2013.92407227 0 C2014.86095235 -0.00453111 2015.79783244 -0.00906223 2016.76310283 -0.01373065 C2019.88645638 -0.02633919 2023.00963476 -0.02475655 2026.13301086 -0.02310181 C2028.37908145 -0.02908932 2030.62514998 -0.03589538 2032.87121582 -0.04345703 C2038.96234083 -0.06110283 2045.05340962 -0.06581186 2051.14455771 -0.0670886 C2054.95387908 -0.06851171 2058.76318622 -0.07278439 2062.57250404 -0.07808304 C2075.18702745 -0.09562566 2087.80150993 -0.10492387 2100.41604223 -0.10342209 C2101.09511258 -0.10334218 2101.77418294 -0.10326227 2102.47383118 -0.10317993 C2103.15373853 -0.10309817 2103.83364588 -0.10301641 2104.53415648 -0.10293217 C2115.54388548 -0.1021199 2126.55347748 -0.12124554 2137.56316688 -0.14945666 C2148.88961134 -0.17824851 2160.21596836 -0.19162798 2171.54245788 -0.19026911 C2177.89263249 -0.18976027 2184.24265203 -0.19540068 2190.59279442 -0.21662521 C2196.56910688 -0.23605528 2202.5451171 -0.23609926 2208.52144051 -0.22159195 C2210.70745665 -0.21950859 2212.89349195 -0.2241763 2215.0794754 -0.23631287 C2234.85280948 -0.33893131 2251.09006769 2.63076474 2266.02876282 16.78695679 C2274.80766878 26.29993509 2280.43840202 38.74100845 2280.44547582 51.768139 C2280.44849179 52.87025432 2280.45150775 53.97236963 2280.45461512 55.10788238 C2280.45284564 56.31571856 2280.45107617 57.52355474 2280.44925308 58.76799202 C2280.45130572 60.0586948 2280.45335835 61.34939758 2280.45547318 62.67921257 C2280.46104377 66.27586752 2280.4603667 69.87249868 2280.45869559 73.46915657 C2280.45796522 77.37684205 2280.46298574 81.28452079 2280.46727061 85.1922034 C2280.47485609 92.94893591 2280.47704395 100.70566153 2280.47759967 108.46239736 C2280.47851277 117.75083616 2280.48517869 127.03926859 2280.49194649 136.32770465 C2280.50801429 158.77875256 2280.51391059 181.22979979 2280.51869524 203.68085242 C2280.52103034 214.29931946 2280.52463289 224.91778595 2280.52839062 235.53625256 C2280.54122661 271.87639717 2280.55194592 308.21654148 2280.55539322 344.55668831 C2280.55561485 346.83834952 2280.55583664 349.12001073 2280.55605857 351.40167194 C2280.55627921 353.68887877 2280.55649969 355.9760856 2280.55672002 358.26329243 C2280.55716257 362.85190972 2280.55760969 367.440527 2280.55805969 372.02914429 C2280.55816908 373.16685648 2280.55827847 374.30456867 2280.55839118 375.476757 C2280.56202242 412.37334383 2280.57794474 449.26991102 2280.60125006 486.16649033 C2280.62583839 525.16554763 2280.63956559 564.1645937 2280.64076114 603.16365898 C2280.64093259 607.44363841 2280.64114802 611.72361783 2280.64139557 616.00359726 C2280.64145134 617.05746692 2280.64150711 618.11133658 2280.64156456 619.19714169 C2280.64271586 636.16694758 2280.65374452 653.13673334 2280.66828262 670.10653243 C2280.68263912 687.1590378 2280.68588939 704.21151732 2280.67784265 721.26402707 C2280.67338244 731.39755416 2280.67726264 741.53099789 2280.69308115 751.66451405 C2280.70282023 758.43310018 2280.70166315 765.20162781 2280.69164492 771.97021338 C2280.68624518 775.82705773 2280.68556757 779.68374184 2280.69815364 783.54057302 C2280.71160669 787.69777621 2280.70179499 791.85460477 2280.68976212 796.01181221 C2280.69735731 797.20560139 2280.7049525 798.39939058 2280.71277785 799.62935519 C2280.62314423 813.93794102 2276.46405526 826.69958868 2266.54438782 837.23226929 C2256.74679584 846.18761213 2243.75696734 850.39110253 2230.65380787 850.39351471 C2230.00469568 850.39499746 2229.35558348 850.39648022 2228.68680122 850.3980079 C2226.5088323 850.4017618 2224.33093326 850.39839707 2222.15296447 850.39507604 C2220.56777858 850.39631891 2218.98259298 850.39799969 2217.39740796 850.4000784 C2213.01653873 850.40454141 2208.63569056 850.40274513 2204.25482075 850.39997661 C2199.48038448 850.39805877 2194.70595238 850.40193335 2189.93151724 850.4050734 C2181.52313013 850.40979497 2173.1147489 850.41076957 2164.70636068 850.40934506 C2152.1185795 850.40722816 2139.53080443 850.41083126 2126.94302419 850.41555983 C2105.49269572 850.42344293 2084.04236891 850.42652237 2062.59203911 850.42700577 C2040.84437542 850.42750007 2019.09671359 850.43014312 1997.34905052 850.43541336 C1995.96324929 850.4357469 1994.57744806 850.43608037 1993.19164683 850.43641377 C1987.6042238 850.43776186 1982.01680078 850.43912515 1976.42937776 850.44050587 C1914.9515852 850.45567623 1853.4737931 850.46244924 1791.99599896 850.46692784 C1790.82942421 850.46701287 1790.82942421 850.46701287 1789.6392823 850.46709962 C1785.70545517 850.46738614 1781.77162805 850.46767118 1777.83780093 850.46795374 C1744.8859793 850.47032842 1711.93415788 850.47403799 1678.9823364 850.47799084 C1663.20427637 850.4798834 1647.42621633 850.4817119 1631.64815629 850.48352504 C1630.47110708 850.48366032 1630.47110708 850.48366032 1629.27027911 850.48379834 C1591.50321532 850.48813463 1553.73615149 850.49206295 1515.9690876 850.49552536 C1514.76061761 850.49563617 1514.76061761 850.49563617 1513.52773408 850.49574922 C1462.18162469 850.50044443 1410.83551536 850.50326731 1359.48940579 850.50491214 C1355.27940513 850.50504772 1351.06940447 850.50518675 1346.85940381 850.50532568 C1340.10970081 850.50554816 1333.3599978 850.50576952 1326.61029479 850.50598956 C1325.77388761 850.50601683 1324.93748042 850.5060441 1324.07572756 850.5060722 C1322.38527873 850.50612731 1320.6948299 850.50618242 1319.00438106 850.50623753 C1307.14626969 850.50662415 1295.28815831 850.50701209 1283.43004694 850.50740666 C1279.1869556 850.50754777 1274.94386427 850.50768784 1270.70077293 850.50782556 C1190.55723313 850.51042996 1110.41369526 850.51576141 1030.27015686 850.53170776 C1029.00451569 850.53195945 1029.00451569 850.53195945 1027.71330602 850.53221623 C1001.35035927 850.53746696 974.9874126 850.5430413 948.62446594 850.54867554 C921.57444194 850.55445645 894.52441792 850.56018696 867.47439384 850.56563187 C866.64152439 850.56579967 865.80865493 850.56596748 864.950547 850.56614037 C812.79613876 850.5766321 760.64173106 850.58349475 708.48732185 850.58649826 C707.68190028 850.58654507 706.87647871 850.58659188 706.04665043 850.58664011 C670.67571364 850.58869069 635.30477686 850.58993484 599.93384001 850.59028617 C585.70433672 850.59042944 571.47483344 850.5906681 557.24533015 850.59095023 C554.88598143 850.59099576 552.52663271 850.59103741 550.16728399 850.59107834 C514.07130491 850.59172457 477.97532804 850.59468501 441.87935019 850.60453892 C441.10071672 850.60475129 440.32208325 850.60496366 439.51985482 850.60518247 C426.9942448 850.60861133 414.46863483 850.61222427 401.94302486 850.61585887 C366.39035248 850.62617028 330.83768281 850.63495425 295.28500867 850.6330142 C294.20319561 850.63295609 294.20319561 850.63295609 293.09952774 850.63289681 C277.36605654 850.6320203 261.63258555 850.63030832 245.89911454 850.62777719 C239.62441186 850.62678042 233.34970918 850.62589377 227.07500648 850.62504196 C226.39053786 850.62494607 225.70606923 850.62485019 225.00085914 850.62475139 C202.62056531 850.62167006 180.24028866 850.62872042 157.8599982 850.64061533 C136.55100959 850.65173208 115.24204305 850.65221155 93.93305411 850.64124514 C81.42812067 850.63513185 68.92325368 850.63728815 56.41832646 850.65149712 C48.12229346 850.66010901 39.82630957 850.65791832 31.53027965 850.64679841 C26.8217243 850.64079369 22.11329958 850.63950083 17.40475272 850.65148327 C13.13089294 850.66227235 8.85727337 850.65920569 4.58342499 850.6451906 C3.05240378 850.64257078 1.52136346 850.6449327 -0.00963871 850.65300385 C-15.54599755 850.72940697 -30.12450147 848.21394039 -41.86576843 837.27914429 C-49.64415319 828.66437407 -53.80201553 817.29500062 -53.81097585 805.74977732 C-53.81588414 804.09092264 -53.81588414 804.09092264 -53.82089159 802.39855576 C-53.81940797 801.18647823 -53.81792434 799.97440071 -53.81639576 798.72559357 C-53.81874799 797.43042486 -53.82110022 796.13525615 -53.82352373 794.8008399 C-53.82992671 791.19164725 -53.83008511 787.58247685 -53.82924632 783.9732796 C-53.82941576 780.0519715 -53.83532124 776.13067139 -53.84048718 772.20936728 C-53.84981816 764.42548818 -53.85373607 756.64161477 -53.85600615 748.85773078 C-53.85896692 739.53670269 -53.86766359 730.21568216 -53.87642043 720.89465804 C-53.89727084 698.36397746 -53.90773551 675.83329558 -53.91655004 653.30260761 C-53.92075564 642.64560997 -53.92597774 631.98861291 -53.93123457 621.33161575 C-53.94912515 584.85718941 -53.96412159 548.3827629 -53.97155476 511.90833282 C-53.97202951 509.61818706 -53.9725054 507.32804129 -53.97298242 505.03789553 C-53.97321879 503.90218068 -53.97345517 502.76646582 -53.97369871 501.59633537 C-53.97489992 495.84216751 -53.97611536 490.08799965 -53.9773407 484.33383179 C-53.97758085 483.19189658 -53.977821 482.04996138 -53.97806843 480.87342208 C-53.98596217 443.8453031 -54.00939535 406.81721614 -54.04189664 369.78911114 C-54.07618975 330.64822892 -54.09590541 291.50736545 -54.099199 252.36646795 C-54.09961654 248.0701634 -54.10009611 243.77385886 -54.10062218 239.47755432 C-54.10074537 238.41967005 -54.10086856 237.36178579 -54.10099549 236.27184442 C-54.10332814 219.24291636 -54.11899173 202.21402548 -54.13946402 185.18511068 C-54.15971377 168.06983461 -54.16520334 150.95460322 -54.15569339 133.83931738 C-54.15047516 123.67063701 -54.15637117 113.50210534 -54.17822806 103.33344635 C-54.19172911 96.53887798 -54.19066528 89.74441204 -54.1778261 82.94984267 C-54.17092488 79.0797615 -54.17027536 75.20996474 -54.18738619 71.3399089 C-54.20569387 67.16505208 -54.19286135 62.99085393 -54.17715931 58.81598663 C-54.18738152 57.62263844 -54.19760372 56.42929025 -54.20813569 55.19977999 C-54.07537079 39.03128709 -48.08562704 24.82535124 -36.63822937 13.4883728 C-26.40993055 4.01546669 -13.76445475 -0.0489717 0 0 Z " fill="#FFFFFF" transform="translate(53.68217468261719,1230.7325744628906)"/>
</svg>
